<svg xmlns="http://www.w3.org/2000/svg" xmlns:xlink="http://www.w3.org/1999/xlink" fill="none" version="1.1" width="12" height="12" viewBox="0 0 12 12"><defs><clipPath id="master_svg0_4015_78758"><rect x="0" y="0" width="12" height="12" rx="0"/></clipPath></defs><g clip-path="url(#master_svg0_4015_78758)"><g><path d="M2.12499053125,2.805001Q3.13498953125,4.1,4.99998953125,6.5L4.99998953125,9.5C5.00081953125,9.7758,5.2241895312499995,9.999179999999999,5.49998953125,10L6.49998953125,10C6.77578953125,9.999179999999999,6.99916953125,9.7758,6.99998953125,9.5L6.99998953125,6.5Q8.859989531250001,4.1,9.869989531249999,2.805001C9.98700953125,2.654427,10.00794953125,2.450315,9.923949531249999,2.279116C9.83993953125,2.107916,9.665689531249999,1.999583647,9.47498953125,2.00000120699L2.51999053125,2.00000120699C2.32929253125,1.999583557,2.15503953125,2.107916,2.07103443125,2.279116C1.98702953125,2.450315,2.00797163125,2.654427,2.12499053125,2.805001Z" fill="#C6CBD0" fill-opacity="1"/></g></g></svg>