<svg xmlns="http://www.w3.org/2000/svg" xmlns:xlink="http://www.w3.org/1999/xlink" fill="none" version="1.1" width="12" height="12" viewBox="0 0 12 12"><defs><clipPath id="master_svg0_4362_83674"><rect x="0" y="0" width="12" height="12" rx="0"/></clipPath></defs><g clip-path="url(#master_svg0_4362_83674)"><g><path d="M6.00337,3.59558609375C7.3296,3.59558609375,8.40472,4.67070609375,8.40472,5.99692609375C8.40429,6.08517609375,8.39928,6.17334609375,8.38971,6.26107609375L10.1307,8.00505609375C10.8398,7.41919609375,11.4704,6.74423609375,12.0067,5.99692609375C10.3618,3.74566609375,8.27565,2.39490609375,6.00337,2.39490609375C5.55744,2.39638609375,5.11321,2.4497760937499997,4.67963,2.55399609375L5.73922,3.61058609375C5.82695,3.60101609375,5.91512,3.59600609375,6.00337,3.59558609375ZM0.777436,1.62047309375L2.61147,3.45450609375C1.5938,4.13635609375,0.708868,4.99789609375,0,5.99692609375C1.64492,8.25119609375,3.7311,9.59895609375,6.00337,9.59895609375C6.78762,9.59564609375,7.56328,9.43540609375,8.28465,9.12768609375L10.3858,11.22889609375L11.2293,10.37638609375L1.62391,0.77099609375L0.777436,1.62047309375ZM3.60202,5.99692609375C3.60183,5.56872609375,3.71804,5.14851609375,3.93821,4.78124609375L4.83872,5.68175609375C4.81065,5.77940609375,4.79551,5.88032609375,4.79369,5.98192609375C4.79369,6.64503609375,5.33125,7.18259609375,5.99437,7.18259609375C6.09598,7.18099609375,6.19692,7.16584609375,6.29453,7.13757609375L6.7628,7.60583609375L7.20405,8.05008609375C5.60755,8.97184609375,3.61081,7.82538609375,3.60202,5.98192609375L3.60202,5.99692609375Z" fill="#C6CBD0" fill-opacity="1"/></g></g></svg>