<svg xmlns="http://www.w3.org/2000/svg" xmlns:xlink="http://www.w3.org/1999/xlink" fill="none" version="1.1" width="12" height="12" viewBox="0 0 12 12"><defs><clipPath id="master_svg0_4362_83668"><rect x="0" y="0" width="12" height="12" rx="0"/></clipPath></defs><g clip-path="url(#master_svg0_4362_83668)"><g><path d="M7.602289001464844,1.532601321875C7.701469001464844,1.575591921875,7.791629001464844,1.636956921875,7.8679990014648435,1.713458921875L10.112859001464845,3.960599921875C10.538099001464843,4.386399921875,10.403669001464843,5.106369921875,9.853429001464844,5.3500299218750005L9.057999001464843,5.702319921875L7.565719001464844,7.196309921875L7.447429001464844,8.839739921875001C7.423289001464844,9.174379921875001,7.2061190014648435,9.464169921875,6.8917190014648435,9.581289921875C6.577309001464844,9.698409921875,6.223479001464844,9.621319921875,5.9862890014648436,9.384029921875001L4.537149001464844,7.933459921875L2.0677180014648435,10.414309921875L1.4602890014648438,9.809459921875L3.931149001464844,7.327169921875L2.4320030014648437,5.826889921875C2.195221001464844,5.589879921875,2.1182220014648436,5.236649921874999,2.2348850014648436,4.922599921874999C2.3515480014648436,4.6085499218749995,2.640489001464844,4.391249921875,2.9745790014648437,4.3663099218750006L4.664859001464844,4.240029921875L6.130579001464843,2.772599921875L6.474859001464844,1.978314921875C6.6630690014648435,1.543857721875,7.1678790014648435,1.344286921875,7.602289001464844,1.532601321875Z" fill="#00DEFF" fill-opacity="1"/></g></g></svg>