<svg xmlns="http://www.w3.org/2000/svg" xmlns:xlink="http://www.w3.org/1999/xlink" fill="none" version="1.1" width="12" height="12" viewBox="0 0 12 12"><defs><clipPath id="master_svg0_4362_83670"><rect x="0" y="0" width="12" height="12" rx="0"/></clipPath></defs><g clip-path="url(#master_svg0_4362_83670)"><g><path d="M6.0000152587890625,2.25C3.5703952587890626,2.25142953,1.3888942587890625,3.73882,0.5000152587890625,6C1.3877072587890624,8.262129999999999,3.5699452587890623,9.75004,6.0000152587890625,9.75004C8.430085258789063,9.75004,10.612315258789062,8.262129999999999,11.500015258789062,6C10.611115258789063,3.73882,8.429635258789062,2.25142932,6.0000152587890625,2.25ZM6.0000152587890625,8.5C4.619305258789063,8.5,3.5000152587890625,7.38071,3.5000152587890625,6C3.5000152587890625,4.6192899999999995,4.619305258789063,3.5,6.0000152587890625,3.5C7.380725258789062,3.5,8.500015258789062,4.6192899999999995,8.500015258789062,6C8.499495258789063,7.3805,7.380515258789062,8.49948,6.0000152587890625,8.5ZM6.0000152587890625,4.5C5.1715852587890625,4.5,4.5000152587890625,5.17157,4.5000152587890625,6C4.5000152587890625,6.82843,5.1715852587890625,7.5,6.0000152587890625,7.5C6.8284452587890625,7.5,7.5000152587890625,6.82843,7.5000152587890625,6C7.501125258789062,5.1711100000000005,6.828905258789063,4.498889999999999,6.0000152587890625,4.5Z" fill="#00C8FF" fill-opacity="1"/></g></g></svg>