<svg xmlns="http://www.w3.org/2000/svg" xmlns:xlink="http://www.w3.org/1999/xlink" fill="none" version="1.1" width="64" height="64" viewBox="0 0 64 64"><clipPath id="master_svg0_427_611"><rect x="0" y="0" width="64" height="64" rx="0"/></clipPath><g clip-path="url(#master_svg0_427_611)"><g><path d="M8,24.0003221875L8,18.6669921875L56,18.6669921875L56,24.0003221875L8,24.0003221875Z" fill="#FFFFFF" fill-opacity="1"/><path d="M8,13.33333L8,8L56,8L56,13.33333L8,13.33333Z" fill="#FFFFFF" fill-opacity="1"/><path d="M8.000244140625,32C8.000244140625,29.79102,9.791094140625,28,12.000244140625,28C14.209394140625001,28,16.000244140625,29.79102,16.000244140625,32C16.000244140625,34.20898,14.209394140625001,36,12.000244140625,36C9.791094140625,36,8.000244140625,34.20898,8.000244140625,32Z" fill="#E9BB1D" fill-opacity="1"/><path d="M8.000244140625,53.333251953125C8.000244140625,51.124271953125,9.791094140625,49.333251953125,12.000244140625,49.333251953125C14.209394140625001,49.333251953125,16.000244140625,51.124271953125,16.000244140625,53.333251953125C16.000244140625,55.542231953125,14.209394140625001,57.333251953125,12.000244140625,57.333251953125C9.791094140625,57.333251953125,8.000244140625,55.542231953125,8.000244140625,53.333251953125Z" fill="#E9BB1D" fill-opacity="1"/><path d="M21.333251953125,32C21.333251953125,29.79102,23.124101953125,28,25.333251953125,28C27.542401953125,28,29.333251953125,29.79102,29.333251953125,32C29.333251953125,34.20898,27.542401953125,36,25.333251953125,36C23.124101953125,36,21.333251953125,34.20898,21.333251953125,32Z" fill="#E9BB1D" fill-opacity="1"/><path d="M34.666748046875,32C34.666748046875,29.79102,36.457598046875,28,38.666748046875,28C40.875898046875,28,42.666748046875,29.79102,42.666748046875,32C42.666748046875,34.20898,40.875898046875,36,38.666748046875,36C36.457598046875,36,34.666748046875,34.20898,34.666748046875,32Z" fill="#E9BB1D" fill-opacity="1"/><path d="M21.333251953125,53.333251953125C21.333251953125,51.124271953125,23.124101953125,49.333251953125,25.333251953125,49.333251953125C27.542401953125,49.333251953125,29.333251953125,51.124271953125,29.333251953125,53.333251953125C29.333251953125,55.542231953125,27.542401953125,57.333251953125,25.333251953125,57.333251953125C23.124101953125,57.333251953125,21.333251953125,55.542231953125,21.333251953125,53.333251953125Z" fill="#E9BB1D" fill-opacity="1"/><path d="M48,32C48,29.79102,49.79085,28,52,28C54.20915,28,56,29.79102,56,32C56,34.20898,54.20915,36,52,36C49.79085,36,48,34.20898,48,32Z" fill="#E9BB1D" fill-opacity="1"/><path d="M34.666748046875,53.333251953125C34.666748046875,51.124271953125,36.457598046875,49.333251953125,38.666748046875,49.333251953125C40.875898046875,49.333251953125,42.666748046875,51.124271953125,42.666748046875,53.333251953125C42.666748046875,55.542231953125,40.875898046875,57.333251953125,38.666748046875,57.333251953125C36.457598046875,57.333251953125,34.666748046875,55.542231953125,34.666748046875,53.333251953125Z" fill="#E9BB1D" fill-opacity="1"/><path d="M48,53.333251953125C48,51.124271953125,49.79085,49.333251953125,52,49.333251953125C54.20915,49.333251953125,56,51.124271953125,56,53.333251953125C56,55.542231953125,54.20915,57.333251953125,52,57.333251953125C49.79085,57.333251953125,48,55.542231953125,48,53.333251953125Z" fill="#E9BB1D" fill-opacity="1"/><path d="M28,42.666748046875C28,40.457768046875,29.79085,38.666748046875,32,38.666748046875C34.20915,38.666748046875,36,40.457768046875,36,42.666748046875C36,44.875728046875,34.20915,46.666748046875,32,46.666748046875C29.79085,46.666748046875,28,44.875728046875,28,42.666748046875Z" fill="#E9BB1D" fill-opacity="1"/><path d="M41.333251953125,42.666748046875C41.333251953125,40.457768046875,43.124101953125,38.666748046875,45.333251953125,38.666748046875C47.542401953125,38.666748046875,49.333251953125,40.457768046875,49.333251953125,42.666748046875C49.333251953125,44.875728046875,47.542401953125,46.666748046875,45.333251953125,46.666748046875C43.124101953125,46.666748046875,41.333251953125,44.875728046875,41.333251953125,42.666748046875Z" fill="#E9BB1D" fill-opacity="1"/><path d="M14.666748046875,42.666748046875C14.666748046875,40.457768046875,16.457598046875,38.666748046875,18.666748046875,38.666748046875C20.875898046875,38.666748046875,22.666748046875,40.457768046875,22.666748046875,42.666748046875C22.666748046875,44.875728046875,20.875898046875,46.666748046875,18.666748046875,46.666748046875C16.457598046875,46.666748046875,14.666748046875,44.875728046875,14.666748046875,42.666748046875Z" fill="#E9BB1D" fill-opacity="1"/></g></g></svg>