<svg xmlns="http://www.w3.org/2000/svg" xmlns:xlink="http://www.w3.org/1999/xlink" fill="none" version="1.1" width="64" height="64" viewBox="0 0 64 64"><clipPath id="master_svg0_427_637"><rect x="0" y="0" width="64" height="64" rx="0"/></clipPath><g clip-path="url(#master_svg0_427_637)"><g><path d="M8,28.6669481640625L8,23.3336181640625L56,23.3336181640625L56,28.6669481640625L8,28.6669481640625Z" fill="#FFFFFF" fill-opacity="1"/><path d="M8,17.9999559765625L8,12.6666259765625L56,12.6666259765625L56,17.9999559765625L8,17.9999559765625Z" fill="#FFFFFF" fill-opacity="1"/><path d="M8.000244140625,36.6666259765625C8.000244140625,34.4576459765625,9.791094140625,32.6666259765625,12.000244140625,32.6666259765625C14.209394140625001,32.6666259765625,16.000244140625,34.4576459765625,16.000244140625,36.6666259765625C16.000244140625,38.8756059765625,14.209394140625001,40.6666259765625,12.000244140625,40.6666259765625C9.791094140625,40.6666259765625,8.000244140625,38.8756059765625,8.000244140625,36.6666259765625Z" fill="#E9BB1D" fill-opacity="1"/><path d="M28.000244140625,36.6666259765625C28.000244140625,34.4576459765625,29.791094140625,32.6666259765625,32.000244140625,32.6666259765625C34.209394140625,32.6666259765625,36.000244140625,34.4576459765625,36.000244140625,36.6666259765625C36.000244140625,38.8756059765625,34.209394140625,40.6666259765625,32.000244140625,40.6666259765625C29.791094140625,40.6666259765625,28.000244140625,38.8756059765625,28.000244140625,36.6666259765625Z" fill="#E9BB1D" fill-opacity="1"/><path d="M48.000244140625,36.6666259765625C48.000244140625,34.4576459765625,49.791094140625,32.6666259765625,52.000244140625,32.6666259765625C54.209394140625,32.6666259765625,56.000244140625,34.4576459765625,56.000244140625,36.6666259765625C56.000244140625,38.8756059765625,54.209394140625,40.6666259765625,52.000244140625,40.6666259765625C49.791094140625,40.6666259765625,48.000244140625,38.8756059765625,48.000244140625,36.6666259765625Z" fill="#E9BB1D" fill-opacity="1"/><path d="M37.333251953125,47.3333740234375C37.333251953125,45.1243940234375,39.124101953125,43.3333740234375,41.333251953125,43.3333740234375C43.542401953125,43.3333740234375,45.333251953125,45.1243940234375,45.333251953125,47.3333740234375C45.333251953125,49.5423540234375,43.542401953125,51.3333740234375,41.333251953125,51.3333740234375C39.124101953125,51.3333740234375,37.333251953125,49.5423540234375,37.333251953125,47.3333740234375Z" fill="#E9BB1D" fill-opacity="1"/><path d="M18.666748046875,47.3333740234375C18.666748046875,45.1243940234375,20.457598046875,43.3333740234375,22.666748046875,43.3333740234375C24.875898046875,43.3333740234375,26.666748046875,45.1243940234375,26.666748046875,47.3333740234375C26.666748046875,49.5423540234375,24.875898046875,51.3333740234375,22.666748046875,51.3333740234375C20.457598046875,51.3333740234375,18.666748046875,49.5423540234375,18.666748046875,47.3333740234375Z" fill="#E9BB1D" fill-opacity="1"/></g></g></svg>