<svg xmlns="http://www.w3.org/2000/svg" xmlns:xlink="http://www.w3.org/1999/xlink" fill="none" version="1.1" width="64" height="64" viewBox="0 0 64 64"><clipPath id="master_svg0_427_557"><rect x="0" y="0" width="64" height="64" rx="0"/></clipPath><g clip-path="url(#master_svg0_427_557)" style="mix-blend-mode:passthrough"><g><path d="M32.2,46.600830078125C33.3046,46.600830078125,34.2,47.496246078125,34.2,48.600830078125L34.2,55.400820078125C34.2,56.505400078125,33.3046,57.400830078125,32.2,57.400830078125C31.0953,57.400830078125,30.2,56.505400078125,30.2,55.400820078125L30.2,48.600830078125C30.2,47.496246078125,31.0953,46.600830078125,32.2,46.600830078125ZM18,46.600830078125C19.12183,46.599517818125,20.046509999999998,47.480255078125,20.099980000000002,48.600830078125L20.099980000000002,55.400820078125C20.04663,56.521390078125,19.12183,57.402130078125,18,57.400830078125C16.895386,57.400830078125,16,56.505400078125,16,55.400820078125L16,48.600830078125C16,47.496246078125,16.895386,46.600830078125,18,46.600830078125ZM46.4,46.600830078125C47.504599999999996,46.600830078125,48.4,47.496246078125,48.4,48.600830078125L48.4,55.400820078125C48.4,56.505400078125,47.504599999999996,57.400830078125,46.4,57.400830078125C45.2954,57.400830078125,44.4,56.505400078125,44.4,55.400820078125L44.4,48.600830078125C44.4,47.496246078125,45.2954,46.600830078125,46.4,46.600830078125Z" fill-rule="evenodd" fill="#0AAEFF" fill-opacity="1"/><path d="M32.8,7.000869751C41,7.000869751,47.7001,13.60086,48.6001,22.1009L50.2001,22.1009C55.999,22.1009,60.7001,26.8019,60.7001,32.600899999999996C60.7001,38.3998,55.999,43.1009,50.2001,43.1009L15.9,43.1009C8.800049999999999,43.1009,3,37.100899999999996,3,29.6009C3,22.1009,8.800049999999999,16.10086,15.9,16.10086L18.6,16.10086C20.481,16.49875,22.2335,17.357799999999997,23.7,18.6009C24.5836,19.2636,25.8373,19.084600000000002,26.5,18.2009C27.1853,17.343400000000003,27.0514,16.09375,26.2,15.40088C24.6268,14.139949999999999,22.8281,13.18976,20.8999,12.60088C23.8026,9.01402,28.186,6.9512634,32.8,7.000869751Z" fill-rule="evenodd" fill="#FFFFFF" fill-opacity="1"/></g></g></svg>