<svg xmlns="http://www.w3.org/2000/svg" xmlns:xlink="http://www.w3.org/1999/xlink" fill="none" version="1.1" width="64" height="64" viewBox="0 0 64 64"><clipPath id="master_svg0_427_555"><rect x="0" y="0" width="64" height="64" rx="0"/></clipPath><g clip-path="url(#master_svg0_427_555)" style="mix-blend-mode:passthrough"><g><path d="M31.966550390625,51.29765625C32.612650390625,51.23855625,33.169350390625,51.74875625,33.166550390625005,52.39765625L33.166550390625005,53.69765625L34.466550390625,53.09775625C35.051750390625,52.77395625,35.787150390625,52.94705625,36.166550390625,53.49775625C36.448650390625,54.02035625,36.215850390625,54.67215625,35.666550390625,54.89775625L34.366450390625005,55.59775625L35.666550390625,56.29775625C36.227150390625,56.56655625,36.453750390625,57.24635625,36.166550390625,57.79775625C35.736250390625,58.27675625,35.034750390625,58.40055625,34.466550390625,58.09775625L33.166550390625005,57.49775625L33.166550390625005,58.79775625C33.169350390625,59.44665625,32.612650390625,59.95685625,31.966550390625,59.89775625C31.359050390625,59.89775625,30.866450390625,59.40525625,30.866550390625,58.79775625L30.866550390625,57.49775625L29.566550390625,58.09775625C28.998250390625,58.40065625,28.296850390625,58.27685625,27.866550390625,57.79775625C27.579350390625,57.24635625,27.805950390625,56.56665625,28.366550390625,56.29775625L29.666650390625,55.59775625L28.366550390625,54.89775625C27.817250390625,54.67215625,27.584450390625,54.02035625,27.866550390625,53.49775625C28.245950390625,52.94705625,28.981350390625,52.77395625,29.566550390625,53.09775625L30.866550390625,53.69765625L30.866550390625,52.39765625C30.866450390625,51.79025625,31.359050390625,51.29775625,31.966550390625,51.29765625ZM46.266650390625,44.89765625C46.858550390625,44.88945625,47.368050390625,45.31405625,47.466550390625,45.89765625L47.466550390625,47.29765625L48.766650390625,46.59765625C49.327050390625,46.33235625,49.996850390625,46.49985625,50.366550390625,46.99765625C50.653850390625,47.54905625,50.427250390625,48.22885625,49.866550390625,48.49765625L48.566550390625,49.19765625L49.866550390625,49.79765625C50.427250390625,50.06645625,50.653850390625,50.74625625,50.366550390625,51.29765625C49.996850390625,51.79555625,49.327050390625,51.96295625,48.766650390625,51.69765625L47.466550390625,50.99765625L47.466550390625,52.39765625C47.414450390625,53.02105625,46.892250390625,53.49975625,46.266650390625,53.49765625C45.620450390625,53.55665625,45.063950390625,53.04655625,45.066650390625,52.39765625L45.066650390625,50.99765625L43.766650390625,51.69765625C43.211550390625,52.00995625,42.509250390625,51.83445625,42.166650390625,51.29765625C41.793750390625,50.78395625,41.987450390625,50.05735625,42.566650390625,49.79765625L43.866650390625,49.19765625L42.566650390625,48.49765625C41.987550390625,48.23795625,41.793750390625,47.51135625,42.166650390625,46.99765625C42.509350390625,46.46095625,43.211650390625,46.28535625,43.766650390625,46.59765625L45.066650390625,47.29765625L45.066650390625,45.89765625C45.119550390625,45.28885625,45.658350390625,44.83985625,46.266650390625,44.89765625ZM22.566650390625,46.29765625C22.939650390625,46.81125625,22.745850390625,47.53795625,22.166650390625,47.79765625L20.866550390625,48.49765625L22.166650390625,49.09765625C22.745850390625,49.35725625,22.939650390625,50.08405625,22.566650390625,50.59765625C22.367950390625,50.90305625,22.030850390625,51.09025625,21.666650390625,51.09765625L20.966650390625,51.09765625L19.666650390625,50.39765625L19.666650390625,51.69765625C19.666650390625,52.24995625,19.218850390625,52.69765625,18.666650390625,52.69765625L18.466650390625,52.69765625C17.858350390625,52.75545625,17.319550390625,52.30645625,17.266750390625,51.69765625L17.266750390625,50.29765625L15.966650390625,50.99765625L15.366650390625,50.99765625C14.971350390625,51.00595625,14.597250390625,50.81895625,14.366650390625,50.49765625C14.079450390625,49.94625625,14.306050390625,49.26655625,14.866650390625,48.99765625L16.166750390624998,48.39765625L14.866650390625,47.69765625C14.306050390625,47.42885625,14.079450390625,46.74905625,14.366650390625,46.19765625C14.597250390625,45.87645625,14.971350390625,45.68945625,15.366650390625,45.69765625L15.966650390625,45.69765625L17.266750390625,46.39765625L17.266750390625,44.99765625C17.319450390625,44.38885625,17.858350390625,43.93985625,18.466650390625,43.99765625C19.166650390625,43.99765625,19.666650390625,44.39765625,19.666650390625,44.99765625L19.666650390625,46.39765625L20.966650390625,45.69765625C21.573950390625,45.41675625,22.293750390625,45.68665625,22.566650390625,46.29765625ZM33.366650390625,4.09765625C41.566650390625,4.09765625,48.266750390625,10.797666249999999,49.166750390625,19.39765625L50.766750390625,19.39765625C56.250250390625,19.92965625,60.433450390625,24.53845625,60.433450390625,30.04775625C60.433450390625,35.55705625,56.250250390625,40.16575625,50.766750390625,40.69765625L16.466650390625,40.69765625C9.366700390624999,40.69765625,3.566650390625,34.59765625,3.566650390625,26.99765625C3.566650390625,19.39755625,9.366700390624999,13.29760625,16.466650390625,13.29760625L19.166650390625,13.29760625C21.039550390625,13.71807625,22.786950390625,14.57465625,24.266650390625,15.79765625C25.105150390625,16.54495625,26.405350390625,16.40565625,27.066650390625,15.49765625C27.763450390625,14.60775625,27.630750390625,13.32604625,26.766650390625,12.59759625C25.172750390625,11.343936249999999,23.381750390625,10.36389625,21.466550390625,9.697566250000001C24.396650390625,6.145876250000001,28.762250390625,4.09155273,33.366650390625,4.09765625Z" fill-rule="evenodd" fill="#FFFFFF" fill-opacity="1"/></g></g></svg>