<svg xmlns="http://www.w3.org/2000/svg" xmlns:xlink="http://www.w3.org/1999/xlink" fill="none" version="1.1" width="64" height="64" viewBox="0 0 64 64"><clipPath id="master_svg0_427_523"><rect x="0" y="0" width="64" height="64" rx="0"/></clipPath><g clip-path="url(#master_svg0_427_523)" style="mix-blend-mode:passthrough"><g><path d="M32.94990234375,5.805541992C41.14990234375,5.805541992,47.85000234375,12.4055175,48.75000234375,20.9054875L50.35000234375,20.9054875C56.14890234375,20.9054875,60.85000234375,25.6064875,60.85000234375,31.4054875C60.85000234375,37.2044875,56.14890234375,41.9054875,50.35000234375,41.9054875L16.04990234375,41.9054875C8.949952343749999,41.9054875,3.14990234375,35.9054875,3.14990234375,28.4054875C3.14990234375,20.9054875,8.949952343749999,14.9055175,16.04990234375,14.9055175L18.74990234375,14.9055175C20.63070234375,15.3033475,22.38320234375,16.1623875,23.84990234375,17.4054875C24.73350234375,18.0682875,25.98720234375,17.8891875,26.64990234375,17.0054875C27.33520234375,16.1479875,27.20130234375,14.8983775,26.34990234375,14.2055075C24.77670234375,12.944577500000001,22.97800234375,11.9943875,21.04980234375,11.4055175C23.95260234375,7.8186675,28.33610234375,5.7558594,32.94990234375,5.805541992Z" fill-rule="evenodd" fill="#FFFFFF" fill-opacity="1"/><path d="M18.949829375,51.605533828125L18.949829375,50.105533828125C18.955439375,49.391540828125,19.535889375,48.815673828125,20.249879375,48.815673828125C20.963869375,48.815673828125,21.544309375,49.391540828125,21.549809375,50.105533828125L21.549809375,51.605533828125L22.849849374999998,50.805543828125C23.440429375,50.525813828125,24.145999375000002,50.691833828125,24.549809375000002,51.205563828125C24.924809375000002,51.750673828125,24.737179375,52.501033828125,24.149779375,52.805543828124996L22.749759375,53.505553828125L24.149779375,54.205563828125C24.728999375,54.465213828125,24.922849375,55.191953828125,24.549809375000002,55.705563828125C24.202029375000002,56.292423828125,23.459839375,56.510743828125,22.849849374999998,56.205563828125L21.549809375,55.405573828125L21.549809375,56.905573828125C21.544189375000002,57.619563828125,20.963869375,58.195433828125,20.249879375,58.195433828125C19.535889375,58.195433828125,18.955439375,57.619563828125,18.949829375,56.905573828125L18.949829375,55.405573828125L17.649779375,56.205563828125C17.039669375,56.510743828125,16.297485375,56.292423828125,15.949829375,55.705563828125C15.576904375,55.191893828125,15.770629875,54.465273828125,16.349853375,54.205563828125L17.749879375,53.505553828125L16.349853375,52.805543828124996C15.762451175,52.501093828125,15.574829375,51.750613828125,15.949829375,51.205563828125C16.353759375,50.691833828125,17.059199375,50.525813828125,17.649779375,50.805543828125L18.949829375,51.605533828125Z" fill-rule="evenodd" fill="#FFFFFF" fill-opacity="1"/><path d="M38.75000234375,51.605533828125L38.75000234375,50.105533828125C38.75561234375,49.391540828125,39.33606234375,48.815673828125,40.05005234375,48.815673828125C40.76404234375,48.815673828125,41.34448234375,49.391540828125,41.34997234375,50.105533828125L41.34997234375,51.605533828125L42.65002234375,50.805543828125C43.24060234375,50.525753828125,43.946162343750004,50.691833828125,44.34997234375,51.205563828125C44.72485234375,51.750673828125,44.53723234375,52.500973828125,43.94995234375,52.805543828124996L42.54992234375,53.505553828125L43.94995234375,54.205563828125C44.529052343749996,54.465333828125,44.72290234375,55.191893828125,44.34997234375,55.705563828125C44.002192343749996,56.292423828125,43.26001234375,56.510743828125,42.65002234375,56.205563828125L41.34997234375,55.405573828125L41.34997234375,56.905573828125C41.34436234375,57.619563828125,40.76404234375,58.195433828125,40.05005234375,58.195433828125C39.33606234375,58.195433828125,38.75561234375,57.619563828125,38.75000234375,56.905573828125L38.75000234375,55.405573828125L37.44995234375,56.205563828125C36.83984234375,56.510743828125,36.09765634375,56.292423828125,35.75000034375,55.705563828125C35.37695334375,55.191953828125,35.57080074375,54.465273828125,36.15002434375,54.205563828125L37.55005234375,53.505553828125L36.15002434375,52.805543828124996C35.56274414375,52.500973828125,35.37512234375,51.750673828125,35.75000034375,51.205563828125C36.15380834375,50.691833828125,36.85937234375,50.525813828125,37.44995234375,50.805543828125L38.75000234375,51.605533828125Z" fill-rule="evenodd" fill="#FFFFFF" fill-opacity="1"/></g></g></svg>