<svg xmlns="http://www.w3.org/2000/svg" xmlns:xlink="http://www.w3.org/1999/xlink" fill="none" version="1.1" width="64" height="64" viewBox="0 0 64 64"><clipPath id="master_svg0_427_648"><rect x="0" y="0" width="64" height="64" rx="0"/></clipPath><g clip-path="url(#master_svg0_427_648)"><g><path d="M28,32C28,34.20914,29.79086,36,32,36C34.20914,36,36,34.20914,36,32C36,29.79086,34.20914,28,32,28C29.79086,28,28,29.79086,28,32Z" fill="#FFFFFF" fill-opacity="1"/><path d="M32,29.51558C33.38644,29.51558,34.51761,30.62867,34.51761,32C34.51761,33.37133,33.39084,34.48442,32,34.48442C30.60915,34.48442,29.48239,33.37133,29.48239,32C29.48239,30.62867,30.61356,29.51558,32,29.51558ZM32,27C29.23592,27,27,29.239539999999998,27,32C27,34.76046,29.23592,37,32,37C34.76408,37,37,34.76046,37,32C37,29.239539999999998,34.76408,27,32,27Z" fill="#FFFFFF" fill-opacity="1"/><path d="M37.0249755859375,7.4375L31.9999755859375,12.4L26.9749755859375,7.4375" fill="#FFFFFF" fill-opacity="1"/><path d="M31.9999968359375,14.88127125L25.7374998359375,8.693771250000001C25.0437498359375,8.006271250000001,25.0374998359375,6.89377125,25.7249998359375,6.20002425C26.4124968359375,5.50627425,27.5249968359375,5.50002425,28.2187468359375,6.18752425L32.0062468359375,9.92502125L35.7937568359375,6.18752425C36.4874568359375,5.50002425,37.6062568359375,5.51252425,38.2874568359375,6.20627425C38.9749568359375,6.90002125,38.9624568359375,8.01877125,38.2687568359375,8.700021249999999L31.9999968359375,14.88127125Z" fill="#FFFFFF" fill-opacity="1"/><path d="M32.000048828125,24.98759765625C31.025048828125,24.98759765625,30.237548828125,24.20009765625,30.237548828125,23.22509765625L30.237548828125,2.17509765625C30.237548828125,1.20009765625,31.025048828125,0.41259765625,32.000048828125,0.41259765625C32.975048828125,0.41259765625,33.762548828125,1.20009765625,33.762548828125,2.17509765625L33.762548828125,23.22509765625C33.762548828125,24.20009765625,32.975048828125,24.98759765625,32.000048828125,24.98759765625Z" fill="#FFFFFF" fill-opacity="1"/><path d="M17.9750244140625,11.125L17.9750244140625,18.14375L10.8687744140625,18.14375" fill="#FFFFFF" fill-opacity="1"/><path d="M19.737401171875,19.906248828125L10.868701171875,19.906248828125C9.893701171875,19.906248828125,9.106201171875,19.118798828125,9.106201171875,18.143798828125C9.106201171875,17.168798828125,9.893701171875,16.381298828125,10.868701171875,16.381298828125L16.212451171875,16.381298828125L16.212451171875,11.125048828125C16.212451171875,10.150048828125,16.999951171875,9.362548828125,17.974951171875,9.362548828125C18.949951171875,9.362548828125,19.737401171875,10.150048828125,19.737401171875,11.125048828125L19.737401171875,19.906248828125Z" fill="#FFFFFF" fill-opacity="1"/><path d="M25.71868359375,27.56253125C25.26868359375,27.56253125,24.824883593750002,27.39373125,24.47488359375,27.05003125L9.41242659375,12.162521250000001C8.71867659375,11.475021250000001,8.71242659375,10.36252125,9.39992659375,9.66877425C10.08742359375,8.97502425,11.19992359375,8.96877425,11.89367359375,9.65627425L26.95618359375,24.54373125C27.64988359375,25.23123125,27.65618359375,26.34373125,26.96868359375,27.03753125C26.63118359375,27.38753125,26.17488359375,27.56253125,25.71868359375,27.56253125Z" fill="#FFFFFF" fill-opacity="1"/><path d="M7.137451171875,27.03759765625L12.162451171875,32.00009765625L7.137451171875,36.96259765625" fill="#FFFFFF" fill-opacity="1"/><path d="M7.1374968359375,38.72507890625C6.6812468359375,38.72507890625,6.2249998359375,38.55007890625,5.8812498359375,38.20007890625C5.1937498359375,37.50637890625,5.2062498359375,36.38757890625,5.8937498359375,35.70637890625L9.6499968359375,32.00011890625L5.8937498359375,28.29386890625C5.1999998359375,27.60636890625,5.1937498359375,26.49386890625,5.8812498359375,25.80012190625C6.5687468359375,25.10637190625,7.6812468359375,25.10012190625,8.3749968359375,25.78762190625L14.6749968359375,32.00011890625L8.3749968359375,38.21887890625C8.0312468359375,38.55637890625,7.5874968359375,38.72507890625,7.1374968359375,38.72507890625Z" fill="#FFFFFF" fill-opacity="1"/><path d="M23.118848828125,33.762548828125L1.812548828125,33.762548828125C0.837548828125,33.762548828125,0.050048828125,32.975048828125,0.050048828125,32.000048828125C0.050048828125,31.025048828125,0.837548828125,30.237548828125,1.812548828125,30.237548828125L23.118848828125,30.237548828125C24.093748828125,30.237548828125,24.881248828125,31.025048828125,24.881248828125,32.000048828125C24.881248828125,32.975048828125,24.093748828125,33.762548828125,23.118848828125,33.762548828125Z" fill="#FFFFFF" fill-opacity="1"/><path d="M10.8687744140625,45.856201171875L17.9750244140625,45.856201171875L17.9750244140625,52.874951171875" fill="#FFFFFF" fill-opacity="1"/><path d="M17.974951171875,54.63745C16.999951171875,54.63745,16.212451171875,53.85,16.212451171875,52.875L16.212451171875,47.61875L10.868701171875,47.61875C9.893701171875,47.61875,9.106201171875,46.83125,9.106201171875,45.85625C9.106201171875,44.88125,9.893701171875,44.09375,10.868701171875,44.09375L19.737401171875,44.09375L19.737401171875,52.875C19.737401171875,53.85,18.949951171875,54.63745,17.974951171875,54.63745Z" fill="#FFFFFF" fill-opacity="1"/><path d="M10.65617359375,54.85012890625C10.19992359375,54.85012890625,9.74367659375,54.675128906249995,9.39992659375,54.32512890625C8.71242659375,53.631328906250005,8.71867659375,52.51262890625,9.41242659375,51.83132890625L24.47488359375,36.94387190625C25.16868359375,36.25637190625,26.28738359375,36.26262190625,26.96868359375,36.95637190625C27.65618359375,37.65011890625,27.64988359375,38.76886890625,26.95618359375,39.45011890625L11.89367359375,54.33762890625C11.54992359375,54.68132890625,11.10617359375,54.85012890625,10.65617359375,54.85012890625Z" fill="#FFFFFF" fill-opacity="1"/><path d="M26.9749755859375,56.56259765625L31.9999755859375,51.60009765625L37.0249755859375,56.56259765625" fill="#FFFFFF" fill-opacity="1"/><path d="M37.024969921875,58.32490234375C36.574969921875,58.32490234375,36.131269921875,58.15615234375,35.787469921875,57.81865234375L31.999979921875,54.08115234375L28.212479921875,57.81865234375C27.518729921875,58.50615234375,26.399979921875,58.49365234375,25.718725921875,57.79990234375C25.037475921875,57.10615234375,25.043725921875,55.98740234375,25.731225921875,55.30615234375L31.993729921875,49.11865234375L38.256269921875,55.30615234375C38.949969921875,55.99365234375,38.956269921875,57.10615234375,38.274969921875,57.79990234375C37.937469921875,58.14990234375,37.481269921875,58.32490234375,37.024969921875,58.32490234375Z" fill="#FFFFFF" fill-opacity="1"/><path d="M32.000048828125,63.587451171875C31.025048828125,63.587451171875,30.237548828125,62.799951171875,30.237548828125,61.824951171875L30.237548828125,40.774951171875C30.237548828125,39.799951171875,31.025048828125,39.012451171875,32.000048828125,39.012451171875C32.975048828125,39.012451171875,33.762548828125,39.799951171875,33.762548828125,40.774951171875L33.762548828125,61.824951171875C33.762548828125,62.799951171875,32.975048828125,63.587451171875,32.000048828125,63.587451171875Z" fill="#FFFFFF" fill-opacity="1"/><path d="M46.0250244140625,52.874951171875L46.0250244140625,45.856201171875L53.1312744140625,45.856201171875" fill="#FFFFFF" fill-opacity="1"/><path d="M46.024951171875,54.63745C45.049951171875,54.63745,44.262451171875,53.85,44.262451171875,52.875L44.262451171875,44.09375L53.131201171875,44.09375C54.106201171875,44.09375,54.893651171875,44.88125,54.893651171875,45.85625C54.893651171875,46.83125,54.106201171875,47.61875,53.131201171875,47.61875L47.787451171875,47.61875L47.787451171875,52.875C47.787451171875,53.85,46.999951171875,54.63745,46.024951171875,54.63745Z" fill="#FFFFFF" fill-opacity="1"/><path d="M53.34368359375,54.85012890625C52.89368359375,54.85012890625,52.44988359375,54.68132890625,52.09988359375,54.33762890625L37.03742659375,39.45011890625C36.34367659375,38.76261890625,36.33742659375,37.65011890625,37.02492659375,36.95637190625C37.71242359375,36.26262190625,38.82492359375,36.25637190625,39.51867359375,36.94387190625L54.58118359375,51.83132890625C55.274883593750005,52.51882890625,55.28118359375,53.631328906250005,54.59368359375,54.32512890625C54.256183593749995,54.675128906249995,53.799883593749996,54.85012890625,53.34368359375,54.85012890625Z" fill="#FFFFFF" fill-opacity="1"/><path d="M56.8625244140625,36.96259765625L51.8375244140625,32.00009765625L56.8625244140625,27.03759765625" fill="#FFFFFF" fill-opacity="1"/><path d="M56.862451171875,38.724928515625C56.412451171875,38.724928515625,55.968701171875,38.556128515625,55.624951171875,38.218628515625L49.324951171875,31.999898515625L55.624951171875,25.781145515625C56.318701171875,25.093645515625,57.437451171875,25.106145515625,58.118701171875,25.793645515625C58.806201171875,26.487398515625,58.793701171875,27.606148515625,58.099951171875,28.287398515625L54.349951171875,31.999898515625L58.106201171875,35.706128515625C58.799951171875,36.393628515625,58.806201171875,37.506128515625,58.124951171875,38.199928515625004C57.774951171875,38.549928515625,57.318701171875,38.724928515625,56.862451171875,38.724928515625Z" fill="#FFFFFF" fill-opacity="1"/><path d="M62.187574414062496,33.762548828125L40.8812744140625,33.762548828125C39.9062744140625,33.762548828125,39.1187744140625,32.975048828125,39.1187744140625,32.000048828125C39.1187744140625,31.025048828125,39.9062744140625,30.237548828125,40.8812744140625,30.237548828125L62.187574414062496,30.237548828125C63.1624744140625,30.237548828125,63.949974414062495,31.025048828125,63.949974414062495,32.000048828125C63.949974414062495,32.975048828125,63.1624744140625,33.762548828125,62.187574414062496,33.762548828125Z" fill="#FFFFFF" fill-opacity="1"/><path d="M53.1312744140625,18.14375L46.0250244140625,18.14375L46.0250244140625,11.125" fill="#FFFFFF" fill-opacity="1"/><path d="M53.131201171875,19.906248828125L44.262451171875,19.906248828125L44.262451171875,11.125048828125C44.262451171875,10.150048828125,45.049951171875,9.362548828125,46.024951171875,9.362548828125C46.999951171875,9.362548828125,47.787451171875,10.150048828125,47.787451171875,11.125048828125L47.787451171875,16.381298828125L53.131201171875,16.381298828125C54.106201171875,16.381298828125,54.893651171875,17.168798828125,54.893651171875,18.143798828125C54.893651171875,19.118798828125,54.106201171875,19.906248828125,53.131201171875,19.906248828125Z" fill="#FFFFFF" fill-opacity="1"/><path d="M38.28117359375,27.56253125C37.82492359375,27.56253125,37.36867659375,27.38753125,37.02492659375,27.03753125C36.33742659375,26.34373125,36.34367659375,25.22503125,37.03742659375,24.54373125L52.09988359375,9.65627425C52.79368359375,8.96877425,53.91238359375,8.97502425,54.59368359375,9.66877425C55.28118359375,10.36252125,55.274883593750005,11.481271249999999,54.58118359375,12.162521250000001L39.51867359375,27.05003125C39.17492359375,27.39373125,38.73117359375,27.56253125,38.28117359375,27.56253125Z" fill="#FFFFFF" fill-opacity="1"/></g></g></svg>