<svg xmlns="http://www.w3.org/2000/svg" xmlns:xlink="http://www.w3.org/1999/xlink" fill="none" version="1.1" width="64" height="64" viewBox="0 0 64 64"><clipPath id="master_svg0_427_501"><rect x="0" y="0" width="64" height="64" rx="0"/></clipPath><g clip-path="url(#master_svg0_427_501)" style="mix-blend-mode:passthrough"><g><path d="M17.75,46.400390625C18.87183,46.399169925,19.796509999999998,47.279846625,19.849980000000002,48.400390625L19.849980000000002,55.200380625C19.796509999999998,56.320920625,18.87183,57.201690625,17.75,57.200390625C16.645386,57.200390625,15.75,56.304930625,15.75,55.200380625L15.75,48.400390625C15.75,47.295837625,16.645386,46.400390625,17.75,46.400390625ZM46.15,46.400390625C47.254599999999996,46.400390625,48.15,47.295837625,48.15,48.400390625L48.15,55.200380625C48.15,56.304930625,47.254599999999996,57.200390625,46.15,57.200390625C45.0454,57.200390625,44.15,56.304930625,44.15,55.200380625L44.15,48.400390625C44.15,47.295837625,45.0454,46.400390625,46.15,46.400390625Z" fill-rule="evenodd" fill="#0AAEFF" fill-opacity="1"/><path d="M32.94990234375,6.800415038875C41.14990234375,6.800415038875,47.85000234375,13.400390546875,48.75000234375,21.900360546875L50.35000234375,21.900360546875C56.14890234375,21.900360546875,60.85000234375,26.601360546875,60.85000234375,32.400360546875C60.85000234375,38.199360546875,56.14890234375,42.900360546875,50.35000234375,42.900360546875L16.04990234375,42.900360546875C8.949952343749999,42.900360546875,3.14990234375,36.900360546875,3.14990234375,29.400360546875C3.14990234375,21.900360546875,8.949892343750001,15.900390546875,16.04990234375,15.900390546875L18.74990234375,15.900390546875C20.63070234375,16.298280546875,22.38320234375,17.157360546874997,23.84990234375,18.400360546875C24.73350234375,19.063160546875,25.98720234375,18.884060546875,26.64990234375,18.000360546875C27.33520234375,17.142860546875,27.20130234375,15.893250546875,26.34990234375,15.200380546875C24.77670234375,13.939450546875001,22.97800234375,12.989260546875,21.04980234375,12.400390546875C23.95260234375,8.813540546875,28.33610234375,6.750732446875,32.94990234375,6.800415038875Z" fill-rule="evenodd" fill="#FFFFFF" fill-opacity="1"/><ellipse cx="31.0498046875" cy="52.700439453125" rx="4.5" ry="4.5" fill="#FFFFFF" fill-opacity="1"/></g></g></svg>