<svg xmlns="http://www.w3.org/2000/svg" xmlns:xlink="http://www.w3.org/1999/xlink" fill="none" version="1.1" width="64" height="64" viewBox="0 0 64 64"><clipPath id="master_svg0_427_596"><rect x="0" y="0" width="64" height="64" rx="0"/></clipPath><g clip-path="url(#master_svg0_427_596)" style="mix-blend-mode:passthrough"><g><path d="M16.0501753125,47.2989501953125C17.2099653125,47.2990417480125,18.1501453125,48.2392271953125,18.1501453125,49.3989601953125L18.1501453125,56.1989401953125C18.2116653125,57.2727401953125,17.3239753125,58.1604501953125,16.2501253125,58.0989501953125L16.0501753125,58.0989501953125C14.8646243125,57.9071501953125,13.9829101125,56.8995101953125,13.9501953125,55.6989401953125L13.9501953125,49.3989601953125C13.9501953125,48.2391661953125,14.8903813125,47.2989807129125,16.0501753125,47.2989501953125ZM41.2500953125,47.2989501953125C42.4098953125,47.2989807129125,43.3500953125,48.2391661953125,43.3500953125,49.3989601953125L43.3500953125,55.9989601953125C43.3500953125,57.1587501953125,42.4098953125,58.0989501953125,41.2500953125,58.0989501953125C40.090295312500004,58.0989501953125,39.1501953125,57.1587501953125,39.1501953125,55.9989601953125L39.1501953125,49.3989601953125C39.1501953125,48.2391661953125,40.090295312500004,47.2989807129125,41.2500953125,47.2989501953125ZM24.4500953125,47.2989501953125C25.6098953125,47.2989807129125,26.5501953125,48.2391971953125,26.550095312499998,49.3989601953125L26.550095312499998,55.9989601953125C26.5501953125,57.1587501953125,25.6098953125,58.0989501953125,24.4500953125,58.0989501953125C23.2902853125,58.0989501953125,22.350095312500002,57.1587501953125,22.350095312500002,55.9989601953125L22.350095312500002,49.3989601953125C22.3499753125,48.2391971953125,23.2902853125,47.2989807129125,24.4500953125,47.2989501953125ZM32.8500953125,47.2989501953125C34.0098953125,47.2989807129125,34.9500953125,48.2391661953125,34.9500953125,49.3989601953125L34.9500953125,55.9989601953125C34.9500953125,57.1587501953125,34.0098953125,58.0989501953125,32.8500953125,58.0989501953125C31.6902953125,58.0989501953125,30.7500953125,57.1587501953125,30.7500953125,55.9989601953125L30.7500953125,49.3989601953125C30.7499953125,48.2391971953125,31.6902953125,47.2989807129125,32.8500953125,47.2989501953125ZM49.6501953125,47.2989501953125C50.8098953125,47.2990417480125,51.7500953125,48.2392271953125,51.7500953125,49.3989601953125L51.7500953125,55.9989601953125C51.7410953125,57.1523401953125,50.8035953125,58.0825501953125,49.6501953125,58.0825501953125C48.4966953125,58.0825501953125,47.5591953125,57.1523101953125,47.5501953125,55.9989601953125L47.5501953125,49.3989601953125C47.5502953125,48.2391361953125,48.4903953125,47.2989807129125,49.6501953125,47.2989501953125Z" fill-rule="evenodd" fill="#0AAEFF" fill-opacity="1"/><path d="M32.94990234375,5.8989562990625C41.14990234375,5.8989562990625,47.85000234375,12.4989512890625,48.75000234375,20.9989712890625L50.35000234375,20.9989712890625C56.14890234375,20.9989712890625,60.85000234375,25.6999712890625,60.85000234375,31.4989712890625C60.85000234375,37.2979712890625,56.14890234375,41.9989712890625,50.35000234375,41.9989712890625L16.04990234375,41.9989712890625C8.949952343749999,41.9989712890625,3.14990234375,35.998971289062496,3.14990234375,28.4989712890625C3.14990234375,20.9989712890625,8.949952343749999,14.9989512890625,16.04990234375,14.9989512890625L18.74990234375,14.9989512890625C20.63090234375,15.3968012890625,22.38340234375,16.255871289062497,23.84990234375,17.4989712890625C24.73350234375,18.1617712890625,25.98720234375,17.982671289062502,26.64990234375,17.0989712890625C27.33520234375,16.241471289062503,27.20130234375,14.9918412890625,26.34990234375,14.2989612890625C24.77670234375,13.0380412890625,22.97800234375,12.0878412890625,21.04980234375,11.4989612890625C23.95250234375,7.9120812890625,28.33590234375,5.8493041890625,32.94990234375,5.8989562990625Z" fill-rule="evenodd" fill="#FFFFFF" fill-opacity="1"/></g></g></svg>