<svg xmlns="http://www.w3.org/2000/svg" xmlns:xlink="http://www.w3.org/1999/xlink" fill="none" version="1.1" width="64" height="64" viewBox="0 0 64 64"><clipPath id="master_svg0_427_553"><rect x="0" y="0" width="64" height="64" rx="0"/></clipPath><g clip-path="url(#master_svg0_427_553)" style="mix-blend-mode:passthrough"><g><path d="M32.3999,51.2C33.046,51.1409,33.6027,51.6511,33.599900000000005,52.3L33.599900000000005,53.6L34.8999,53.0001C35.4851,52.6763,36.2205,52.8494,36.5999,53.4001C36.882,53.9227,36.6492,54.5745,36.0999,54.8001L34.799800000000005,55.5001L36.0999,56.2001C36.6605,56.4689,36.8871,57.1487,36.5999,57.7001C36.1696,58.1791,35.4681,58.3029,34.8999,58.0001L33.599900000000005,57.4001L33.599900000000005,58.7001C33.6027,59.349,33.046,59.8592,32.3999,59.8001C31.7924,59.8001,31.2998,59.3076,31.2999,58.7001L31.2999,57.4001L29.9999,58.0001C29.4316,58.303,28.7302,58.1792,28.2999,57.7001C28.0127,57.1487,28.2393,56.469,28.7999,56.2001L30.1,55.5001L28.7999,54.8001C28.2506,54.5745,28.0178,53.9227,28.2999,53.4001C28.6793,52.8494,29.4147,52.6763,29.9999,53.0001L31.2999,53.6L31.2999,52.3C31.2998,51.6926,31.7924,51.2001,32.3999,51.2ZM46.7,44.8C47.2919,44.7918,47.8014,45.2164,47.8999,45.8L47.8999,47.2L49.2,46.5C49.7604,46.2347,50.4302,46.4022,50.7999,46.9C51.0872,47.4514,50.8606,48.1312,50.2999,48.4L48.9999,49.1L50.2999,49.7C50.8606,49.9688,51.0872,50.6486,50.7999,51.2C50.4302,51.6979,49.7604,51.8653,49.2,51.6L47.8999,50.9L47.8999,52.3C47.8478,52.9234,47.3256,53.4021,46.7,53.4C46.0538,53.459,45.4973,52.9489,45.5,52.3L45.5,50.9L44.2,51.6C43.6449,51.9123,42.9426,51.7368,42.6,51.2C42.2271,50.6863,42.4208,49.9597,43,49.7L44.3,49.1L43,48.4C42.4209,48.1403,42.2271,47.4137,42.6,46.9C42.9427,46.3633,43.645,46.1877,44.2,46.5L45.5,47.2L45.5,45.8C45.5529,45.1912,46.0917,44.7422,46.7,44.8ZM23,46.2C23.373,46.7136,23.1792,47.4403,22.6,47.7L21.2999,48.4L22.6,49C23.1792,49.2596,23.373,49.9864,23,50.5C22.8013,50.8054,22.4642,50.9926,22.1,51L21.4,51L20.1,50.3L20.1,51.6C20.1,52.1523,19.6522,52.6,19.1,52.6L18.9,52.6C18.2917,52.6578,17.7529,52.2088,17.7001,51.6L17.7001,50.2L16.4,50.9L15.8,50.9C15.4047,50.9083,15.0306,50.7213,14.8,50.4C14.5128,49.8486,14.7394,49.1689,15.3,48.9L16.600099999999998,48.3L15.3,47.6C14.7394,47.3312,14.5128,46.6514,14.8,46.1C15.0306,45.7788,15.4047,45.5918,15.8,45.6L16.4,45.6L17.7001,46.3L17.7001,44.9C17.7528,44.2912,18.2917,43.8422,18.9,43.9C19.6,43.9,20.1,44.3,20.1,44.9L20.1,46.3L21.4,45.6C22.0073,45.3191,22.7271,45.589,23,46.2ZM33.8,4C42,4,48.7001,10.700009999999999,49.6001,19.3L51.2001,19.3C56.6836,19.832,60.8668,24.4408,60.8668,29.9501C60.8668,35.4594,56.6836,40.0681,51.2001,40.6L16.9,40.6C9.800049999999999,40.6,4,34.5,4,26.9C4,19.2999,9.800049999999999,13.19995,16.9,13.19995L19.6,13.19995C21.4729,13.62042,23.2203,14.477,24.7,15.7C25.5385,16.4473,26.8387,16.308,27.5,15.4C28.1968,14.5101,28.0641,13.22839,27.2,12.49994C25.6061,11.246279999999999,23.8151,10.26624,21.8999,9.599910000000001C24.83,6.048220000000001,29.1956,3.99389648,33.8,4Z" fill-rule="evenodd" fill="#FFFFFF" fill-opacity="1"/></g></g></svg>