<svg xmlns="http://www.w3.org/2000/svg" xmlns:xlink="http://www.w3.org/1999/xlink" fill="none" version="1.1" width="64" height="64" viewBox="0 0 64 64"><clipPath id="master_svg0_427_495"><rect x="0" y="0" width="64" height="64" rx="0"/></clipPath><g clip-path="url(#master_svg0_427_495)" style="mix-blend-mode:passthrough"><g><path d="M49.2001,29.149986328125L49.4,29.149986328125C50.8911,29.149986328125,52.1,27.941086328125,52.1,26.449986328125C52.1,24.958786328125,50.8911,23.749986328125,49.4,23.749986328125C48.5012,23.726086328125,47.6455,24.135286328124998,47.1,24.849986328125C46.1222,26.053886328125,44.3879,26.314086328125,43.1,25.449986328125C41.8187,24.607986328125,41.5405,22.845786328125,42.5,21.649986328125C44.1873,19.581186328125,46.7308,18.401516328125,49.4,18.449986328125C54.1,18.449986328125,58,22.049986328125,58,26.449986328125C58,30.849986328125,54.1,34.449986328125,49.4,34.449986328125L8.80005,34.449986328125C7.32855,34.453686328125,6.105225,33.317786328124996,6.0000610352,31.849986328125C6.0541992,30.358286328125,7.30847,29.193686328125,8.80005,29.249986328125L49.2001,29.249986328125L49.2001,29.149986328125ZM31.2001,19.149886328125L31.4,19.149886328125C32.8911,19.149886328125,34.1,17.941096328125,34.1,16.449946328125C34.1,14.958766328125,32.8911,13.749966328125,31.4,13.749996328125C30.473,13.725986328125,29.587,14.132046328125,29,14.849976328124999C28.0222,16.053896328125,26.288,16.313996328125,25,15.449946328125C23.7188,14.607966328125,23.4404,12.845826328125,24.4,11.650026328125C26.1276,9.577366328125,28.7023,8.400329628125,31.4,8.449951168125C36.1,8.449951168125,40,12.049956328124999,40,16.449946328125C40,20.849986328125,36.1,24.449986328125,31.4,24.449986328125L12.90002,24.449986328125C11.3902,24.507686328125,10.10681,23.357186328125,10,21.849986328125C10.052489999999999,20.316886328125,11.370239999999999,19.135486328124998,12.90002,19.249986328125L31.2001,19.249986328125L31.2001,19.149886328125ZM38.8,39.550086328125005L39.5,39.550086328125005C43.9183,39.550086328125005,47.5,43.131786328125,47.5,47.550086328125C47.5,51.968286328125,43.9183,55.550086328125,39.5,55.550086328125C36.830799999999996,55.598486328125,34.2872,54.418786328125,32.6,52.349986328125C31.6405,51.154186328125,31.9187,49.392086328125,33.2,48.550086328125C34.487899999999996,47.685986328125,36.2222,47.945986328125,37.2,49.149886328125C37.7344,49.878186328125,38.5975,50.291186328125,39.5,50.249986328125C40.9912,50.249986328125,42.2,49.040986328125,42.2,47.549786328125C42.2,46.058686328125,40.9911,44.849786328125,39.5,44.849886328125L12.800049999999999,44.849886328125C11.308530000000001,44.906086328125,10.05426,43.741686328125,10,42.249986328125C10.1051,40.782186328125,11.32855,39.646086328125,12.800049999999999,39.649886328125L38.7999,39.649886328125L38.8,39.550086328125005Z" fill-rule="evenodd" fill="#FFFFFF" fill-opacity="1"/></g></g></svg>