<svg xmlns="http://www.w3.org/2000/svg" xmlns:xlink="http://www.w3.org/1999/xlink" fill="none" version="1.1" width="64" height="64" viewBox="0 0 64 64"><clipPath id="master_svg0_427_465"><rect x="0" y="0" width="64" height="64" rx="0"/></clipPath><g clip-path="url(#master_svg0_427_465)" style="mix-blend-mode:passthrough"><g><path d="M33.26025390625,6.4000244140625C41.46025390625,6.4000244140625,48.26025390625,13.000034414062501,49.16025390625,21.5000244140625L50.76025390625,21.5000244140625C56.55125390625,21.5113244140625,61.23975390625,26.2090244140625,61.23975390625,32.0000244140625C61.23975390625,37.7910244140625,56.55125390625,42.4887244140625,50.76025390625,42.5000244140625L16.26025390625,42.5000244140625C8.80438390625,42.5000244140625,2.76025390625,36.455824414062505,2.76025390625,29.0000244140625C2.76025390625,21.5441244140625,8.80438390625,15.5000044140625,16.26025390625,15.5000044140625C17.16885390625,15.4957244140625,18.07485390625,15.5963744140625,18.96025390625,15.7999844140625L19.06025390625,15.7999844140625C20.88905390625,16.2054744140625,22.59995390625,17.0267244140625,24.06025390625,18.2000244140625C24.93225390625,18.8333244140625,26.14215390625,18.7036244140625,26.86025390625,17.9000244140625C27.52295390625,17.016324414062503,27.34385390625,15.7627544140625,26.46025390625,15.1000044140625C24.90655390625,13.8895244140625,23.14405390625,12.9743644140625,21.26015390625,12.399994414062501C24.12325390625,8.6593044140625,28.54985390625,6.4460449140625,33.26025390625,6.4000244140625Z" fill-rule="evenodd" fill="#FFFFFF" fill-opacity="1"/><path d="M37.460267421875,51.000001171875L37.460267421875,49.500001171875C37.460267421875,48.781982171875,38.042297421875,48.199951171875,38.760257421875,48.199951171875C39.478207421875,48.199951171875,40.060237421875,48.781982171875,40.060237421875,49.500001171875L40.060237421875,51.000001171875L41.360227421875,50.200011171875C41.950807421875,49.920291171875,42.656367421875004,50.086301171875,43.060237421875,50.600041171875C43.435177421875,51.145141171875,43.247557421875,51.895511171875,42.660217421875004,52.200011171875L41.260197421875,52.900021171875L42.660217421875004,53.600041171875C43.247557421875,53.904541171874996,43.435177421875,54.654911171875,43.060237421875,55.200011171875C42.656367421875004,55.713801171875,41.950807421875,55.879821171875,41.360227421875,55.600041171875L40.060237421875,54.800051171875L40.060237421875,56.300051171875C40.060237421875,57.018001171875,39.478207421875,57.600041171875,38.760257421875,57.600041171875C38.042297421875,57.600041171875,37.460267421875,57.018001171875,37.460267421875,56.300051171875L37.460267421875,54.800051171875L36.160277421875,55.600041171875C35.569637421875,55.879821171875,34.864074421875,55.713801171875,34.460266421875,55.200011171875C34.085327421875,54.654911171875,34.272949221875,53.904541171874996,34.860290421875,53.600041171875L36.260317421875,52.900021171875L34.860290421875,52.200011171875C34.272949221875,51.895511171875,34.085327421875,51.145141171875,34.460266421875,50.600041171875C34.864074421875,50.086241171875,35.569697421875,49.920231171875,36.160277421875,50.200011171875L37.460267421875,51.000001171875Z" fill-rule="evenodd" fill="#FFFFFF" fill-opacity="1"/><path d="M49.460327421875,51.000065078125L49.460327421875,49.500065078125C49.465877421875,48.786072078125,50.046267421875,48.210205078125,50.760257421875,48.210205078125C51.474307421875,48.210205078125,52.054687421875,48.786072078125,52.060307421875,49.500065078125L52.060307421875,51.000065078125L53.360287421875,50.200075078125C53.950867421875,49.920345078125,54.656437421875,50.086365078125,55.060307421875,50.600095078125C55.435237421875,51.145205078125,55.247677421875,51.895565078125,54.660277421875,52.200075078124996L53.260257421875,52.900085078125L54.660277421875,53.600095078125C55.247677421875,53.904605078125,55.435237421875,54.654965078125,55.060307421875,55.200075078124996C54.656437421875,55.713865078124996,53.950867421875,55.879885078125,53.360287421875,55.600095078125L52.060307421875,54.800105078125L52.060307421875,56.300105078125C52.054687421875,57.014095078125,51.474247421875,57.589965078125,50.760257421875,57.589965078125C50.046267421875,57.589965078125,49.465877421875,57.014095078125,49.460327421875,56.300105078125L49.460327421875,54.800105078125L48.160337421875,55.600095078125C47.569767421875,55.879885078125,46.864196421875,55.713865078124996,46.460327421875,55.200075078124996C46.085388421875,54.654965078125,46.272949221875,53.904605078125,46.860351421875,53.600095078125L48.260377421875,52.900085078125L46.860351421875,52.200075078124996C46.272949221875,51.895565078125,46.085388421875,51.145205078125,46.460327421875,50.600095078125C46.864196421875,50.086305078125,47.569767421875,49.920285078125,48.160337421875,50.200075078125L49.460327421875,51.000065078125Z" fill-rule="evenodd" fill="#FFFFFF" fill-opacity="1"/><path d="M24.460267421875,51.000001171875L24.460267421875,49.500001171875C24.460267421875,48.781982171875,25.042297421875,48.199951171875,25.760257421875,48.199951171875C26.478207421875,48.199951171875,27.060237421875,48.781982171875,27.060237421875,49.500001171875L27.060237421875,51.000001171875L28.360227421875,50.200011171875C28.950807421875,49.920231171875,29.656437421874998,50.086241171875,30.060237421875,50.600041171875C30.435177421875,51.145141171875,30.247557421875,51.895511171875,29.660217421875,52.200011171875L28.260197421875,52.900021171875L29.660217421875,53.600041171875C30.247557421875,53.904541171874996,30.435177421875,54.654911171875,30.060237421875,55.200011171875C29.656437421874998,55.713801171875,28.950807421875,55.879821171875,28.360227421875,55.600041171875L27.060237421875,54.800051171875L27.060237421875,56.300051171875C27.060237421875,57.018001171875,26.478207421875,57.600041171875,25.760257421875,57.600041171875C25.042297421875,57.600041171875,24.460267421875,57.018001171875,24.460267421875,56.300051171875L24.460267421875,54.800051171875L23.160277421875,55.600041171875C22.569697421875,55.879821171875,21.864135421875,55.713801171875,21.460266421875,55.200011171875C21.085327421875,54.654911171875,21.272949221875,53.904541171874996,21.860290421875,53.600041171875L23.260317421875,52.900021171875L21.860290421875,52.200011171875C21.272949221875,51.895511171875,21.085327421875,51.145141171875,21.460266421875,50.600041171875C21.864135421875,50.086241171875,22.569697421875,49.920231171875,23.160277421875,50.200011171875L24.460267421875,51.000001171875Z" fill-rule="evenodd" fill="#FFFFFF" fill-opacity="1"/><path d="M12.460327421875,51.000001171875L12.460327421875,49.500001171875C12.460327421875,48.781982171875,13.042357421875,48.199951171875,13.760317421875001,48.199951171875C14.478267421875,48.199951171875,15.060307421874999,48.781982171875,15.060307421874999,49.500001171875L15.060307421874999,51.000001171875L16.360287421875,50.200011171875C16.950867421875,49.920291171875,17.656437421874998,50.086301171875,18.060307421875002,50.600041171875C18.435237421875,51.145141171875,18.247677421875,51.895511171875,17.660277421875,52.200011171875L16.260257421875,52.900021171875L17.660277421875,53.600041171875C18.247677421875,53.904541171874996,18.435237421875,54.654911171875,18.060307421875002,55.200011171875C17.656497421875002,55.713801171875,16.950867421875,55.879821171875,16.360287421875,55.600041171875L15.060307421874999,54.800051171875L15.060307421874999,56.300051171875C15.060307421874999,57.018001171875,14.478267421875,57.600041171875,13.760317421875001,57.600041171875C13.042357421875,57.600041171875,12.460327421875,57.018001171875,12.460327421875,56.300051171875L12.460327421875,54.800051171875L11.160337421874999,55.600041171875C10.569767421875,55.879821171875,9.864135421875,55.713801171875,9.460327421875,55.200011171875C9.085388421875,54.654911171875,9.272949221875,53.904541171874996,9.860351421875,53.600041171875L11.260377421874999,52.900021171875L9.860351421875,52.200011171875C9.272949221875,51.895511171875,9.085388421875,51.145141171875,9.460327421875,50.600041171875C9.864196421875,50.086241171875,10.569767421875,49.920231171875,11.160337421874999,50.200011171875L12.460327421875,51.000001171875Z" fill-rule="evenodd" fill="#FFFFFF" fill-opacity="1"/></g></g></svg>