<svg xmlns="http://www.w3.org/2000/svg" xmlns:xlink="http://www.w3.org/1999/xlink" fill="none" version="1.1" width="64" height="64" viewBox="0 0 64 64"><clipPath id="master_svg0_427_593"><rect x="0" y="0" width="64" height="64" rx="0"/></clipPath><g clip-path="url(#master_svg0_427_593)" style="mix-blend-mode:passthrough"><g><path d="M16.04968703125,47.2989501953125C17.20947703125,47.2990417480125,18.14965703125,48.2392271953125,18.14965703125,49.3989601953125L18.14965703125,56.1989401953125C18.21117703125,57.2727401953125,17.32348703125,58.1604501953125,16.24963703125,58.0989501953125L16.04968703125,58.0989501953125C14.86413603125,57.9071501953125,13.98242183125,56.8995101953125,13.94970703125,55.6989401953125L13.94970703125,49.3989601953125C13.94970703125,48.2391661953125,14.88989303125,47.2989807129125,16.04968703125,47.2989501953125ZM41.24960703125,47.2989501953125C42.40940703125,47.2989807129125,43.34960703125,48.2391661953125,43.34960703125,49.3989601953125L43.34960703125,55.9989601953125C43.34960703125,57.1587501953125,42.40940703125,58.0989501953125,41.24960703125,58.0989501953125C40.089807031250004,58.0989501953125,39.14970703125,57.1587501953125,39.14970703125,55.9989601953125L39.14970703125,49.3989601953125C39.14970703125,48.2391661953125,40.089807031250004,47.2989807129125,41.24960703125,47.2989501953125ZM24.44960703125,47.2989501953125C25.60940703125,47.2989807129125,26.54970703125,48.2391971953125,26.549607031249998,49.3989601953125L26.549607031249998,55.9989601953125C26.54970703125,57.1587501953125,25.60940703125,58.0989501953125,24.44960703125,58.0989501953125C23.28979703125,58.0989501953125,22.349607031250002,57.1587501953125,22.349607031250002,55.9989601953125L22.349607031250002,49.3989601953125C22.34948703125,48.2391971953125,23.28979703125,47.2989807129125,24.44960703125,47.2989501953125ZM32.84960703125,47.2989501953125C34.00940703125,47.2989807129125,34.94960703125,48.2391661953125,34.94960703125,49.3989601953125L34.94960703125,55.9989601953125C34.94960703125,57.1587501953125,34.00940703125,58.0989501953125,32.84960703125,58.0989501953125C31.68980703125,58.0989501953125,30.74960703125,57.1587501953125,30.74960703125,55.9989601953125L30.74960703125,49.3989601953125C30.74950703125,48.2391971953125,31.68980703125,47.2989807129125,32.84960703125,47.2989501953125ZM49.64970703125,47.2989501953125C50.80940703125,47.2990417480125,51.74960703125,48.2392271953125,51.74960703125,49.3989601953125L51.74960703125,55.9989601953125C51.74060703125,57.1523401953125,50.80310703125,58.0825501953125,49.64970703125,58.0825501953125C48.49620703125,58.0825501953125,47.55870703125,57.1523101953125,47.54970703125,55.9989601953125L47.54970703125,49.3989601953125C47.54980703125,48.2391361953125,48.48990703125,47.2989807129125,49.64970703125,47.2989501953125Z" fill-rule="evenodd" fill="#0AAEFF" fill-opacity="1"/><path d="M32.94990234375,5.8989562990625C41.14990234375,5.8989562990625,47.85000234375,12.4989512890625,48.75000234375,20.9989712890625L50.35000234375,20.9989712890625C56.14890234375,20.9989712890625,60.85000234375,25.6999712890625,60.85000234375,31.4989712890625C60.85000234375,37.2979712890625,56.14890234375,41.9989712890625,50.35000234375,41.9989712890625L16.04990234375,41.9989712890625C8.949952343749999,41.9989712890625,3.14990234375,35.998971289062496,3.14990234375,28.4989712890625C3.14990234375,20.9989712890625,8.949952343749999,14.9989512890625,16.04990234375,14.9989512890625L18.74990234375,14.9989512890625C20.63090234375,15.3968012890625,22.38340234375,16.255871289062497,23.84990234375,17.4989712890625C24.73350234375,18.1617712890625,25.98720234375,17.982671289062502,26.64990234375,17.0989712890625C27.33520234375,16.241471289062503,27.20130234375,14.9918412890625,26.34990234375,14.2989612890625C24.77670234375,13.0380412890625,22.97800234375,12.0878412890625,21.04980234375,11.4989612890625C23.95250234375,7.9120812890625,28.33590234375,5.8493041890625,32.94990234375,5.8989562990625Z" fill-rule="evenodd" fill="#FFFFFF" fill-opacity="1"/></g></g></svg>