<svg xmlns="http://www.w3.org/2000/svg" xmlns:xlink="http://www.w3.org/1999/xlink" fill="none" version="1.1" width="64" height="64" viewBox="0 0 64 64"><clipPath id="master_svg0_427_566"><rect x="0" y="0" width="64" height="64" rx="0"/></clipPath><g clip-path="url(#master_svg0_427_566)" style="mix-blend-mode:passthrough"><g><path d="M15.74975703125,47.3004150390625C16.74389703125,47.3004150390625,17.54980703125,48.1063230390625,17.54980703125,49.1004050390625L17.54980703125,54.7003750390625C17.54980703125,55.5840450390625,16.83349703125,56.3003550390625,15.949827031249999,56.3003550390625L15.74987703125,56.3003550390625C14.70849603125,56.1501450390625,13.93908693125,55.2524450390625,13.94982910125,54.2003750390625L13.94982910125,49.1004050390625C13.94982910125,48.1063230390625,14.75573703125,47.3004150390625,15.74975703125,47.3004150390625Z" fill-rule="evenodd" fill="#0AAEFF" fill-opacity="1"/><path d="M49.94995234375,45.50048828125C50.94409234375,45.50048828125,51.74988234375,46.30633528125,51.75000234375,47.30047828125L51.75000234375,54.50048828125C51.74988234375,55.49462828125,50.94409234375,56.30048828125,49.94995234375,56.30048828125C48.95581034375,56.30048828125,48.14990234375,55.49456828125,48.14990234375,54.50048828125L48.14990234375,47.30047828125C48.14990234375,46.30639628125,48.95581034375,45.50048828125,49.94995234375,45.50048828125Z" fill-rule="evenodd" fill="#0AAEFF" fill-opacity="1"/><path d="M26.54993,45.50048828125C27.54407,45.50048828125,28.34998,46.30639628125,28.34998,47.30047828125L28.34998,54.50048828125C28.3501,55.49456828125,27.54419,56.30048828125,26.55005,56.30048828125C25.555908,56.30048828125,24.75,55.49456828125,24.75,54.50048828125L24.75,47.30047828125C24.74987793,46.30639628125,25.555786,45.50048828125,26.54993,45.50048828125Z" fill-rule="evenodd" fill="#0AAEFF" fill-opacity="1"/><path d="M37.349978828125,47.3004150390625C38.344118828125,47.3004150390625,39.150028828125,48.1063230390625,39.150028828125,49.1004050390625L39.150028828125,54.5004250390625C39.150028828125,55.4945050390625,38.344118828125,56.3004150390625,37.350098828125,56.3004150390625C36.355956828125,56.3004150390625,35.550048828125,55.4945050390625,35.550048828125,54.5004250390625L35.550048828125,49.1004050390625C35.550048828125,48.1063230390625,36.355956828125,47.3004150390625,37.349978828125,47.3004150390625Z" fill-rule="evenodd" fill="#0AAEFF" fill-opacity="1"/><path d="M32.94990234375,7.7004394529375C41.14990234375,7.7004394529375,47.85000234375,14.3004149609375,48.75000234375,22.8003849609375L50.35000234375,22.8003849609375C56.14890234375,22.8003849609375,60.85000234375,27.5013849609375,60.85000234375,33.3003849609375C60.85000234375,39.0993849609375,56.14890234375,43.8003849609375,50.35000234375,43.8003849609375L16.04990234375,43.8003849609375C8.949952343749999,43.8003849609375,3.14990234375,37.8003849609375,3.14990234375,30.3003849609375C3.14990234375,22.8003849609375,8.949952343749999,16.800414960937502,16.04990234375,16.800414960937502L18.74990234375,16.800414960937502C20.63070234375,17.1982449609375,22.38330234375,18.0572849609375,23.84990234375,19.3003849609375C24.73350234375,19.9631849609375,25.98720234375,19.7840849609375,26.64990234375,18.9003849609375C27.33520234375,18.0428849609375,27.20130234375,16.793274960937502,26.34990234375,16.1004049609375C24.77670234375,14.839474960937501,22.97800234375,13.8892849609375,21.04980234375,13.3004149609375C23.95250234375,9.7135649609375,28.33590234375,7.6507568609375,32.94990234375,7.7004394529375Z" fill-rule="evenodd" fill="#FFFFFF" fill-opacity="1"/></g></g></svg>