<svg xmlns="http://www.w3.org/2000/svg" xmlns:xlink="http://www.w3.org/1999/xlink" fill="none" version="1.1" width="64" height="64" viewBox="0 0 64 64"><clipPath id="master_svg0_427_560"><rect x="0" y="0" width="64" height="64" rx="0"/></clipPath><g clip-path="url(#master_svg0_427_560)" style="mix-blend-mode:passthrough"><g><path d="M30.149951171875,46.400390625C31.254551171875,46.400390625,32.149951171875,47.295806625,32.149951171875,48.400390625L32.149951171875,55.200380625C32.149951171875,56.304960625,31.254551171875,57.200390625,30.149951171875,57.200390625C29.045251171875,57.200390625,28.149951171875,56.304960625,28.149951171875,55.200380625L28.149951171875,48.400390625C28.149951171875,47.295806625,29.045251171875,46.400390625,30.149951171875,46.400390625ZM15.949951171875,46.400390625C17.071781171875,46.399078365,17.996461171874998,47.279815625,18.049931171875002,48.400390625L18.049931171875002,55.200380625C17.996581171875,56.320950625,17.071781171875,57.201690625,15.949951171875,57.200390625C14.845337171875,57.200390625,13.949951171875,56.304960625,13.949951171875,55.200380625L13.949951171875,48.400390625C13.949951171875,47.295806625,14.845337171875,46.400390625,15.949951171875,46.400390625ZM44.349951171875,46.400390625C45.454551171874996,46.400390625,46.349951171875,47.295806625,46.349951171875,48.400390625L46.349951171875,55.200380625C46.349951171875,56.304960625,45.454551171874996,57.200390625,44.349951171875,57.200390625C43.245351171875,57.200390625,42.349951171875,56.304960625,42.349951171875,55.200380625L42.349951171875,48.400390625C42.349951171875,47.295806625,43.245351171875,46.400390625,44.349951171875,46.400390625Z" fill-rule="evenodd" fill="#0AAEFF" fill-opacity="1"/><path d="M32.94990234375,6.800430297875C41.14990234375,6.800430297875,47.85000234375,13.400420546875,48.75000234375,21.900460546875L50.35000234375,21.900460546875C56.14890234375,21.900460546875,60.85000234375,26.601460546875,60.85000234375,32.400460546874996C60.85000234375,38.199360546875,56.14890234375,42.900460546875,50.35000234375,42.900460546875L16.04990234375,42.900460546875C8.949952343749999,42.900460546875,3.14990234375,36.900460546874996,3.14990234375,29.400460546875C3.14990234375,21.900460546875,8.949952343749999,15.900420546875,16.04990234375,15.900420546875L18.74990234375,15.900420546875C20.63090234375,16.298310546875,22.38340234375,17.157360546874997,23.84990234375,18.400460546875C24.73350234375,19.063160546875,25.98720234375,18.884160546875002,26.64990234375,18.000460546875C27.33520234375,17.142960546875003,27.20130234375,15.893310546875,26.34990234375,15.200440546875C24.77670234375,13.939510546874999,22.97800234375,12.989320546875,21.04980234375,12.400440546875C23.95250234375,8.813580546875,28.33590234375,6.750823946875,32.94990234375,6.800430297875Z" fill-rule="evenodd" fill="#FFFFFF" fill-opacity="1"/></g></g></svg>