<svg xmlns="http://www.w3.org/2000/svg" xmlns:xlink="http://www.w3.org/1999/xlink" fill="none" version="1.1" width="64" height="64" viewBox="0 0 64 64"><clipPath id="master_svg0_427_508"><rect x="0" y="0" width="64" height="64" rx="0"/></clipPath><g clip-path="url(#master_svg0_427_508)" style="mix-blend-mode:passthrough"><g><path d="M38.949951171875,46.400390625C40.054551171875005,46.400390625,40.949951171875,47.295806625,40.949951171875,48.400390625L40.949951171875,55.200380625C40.949951171875,56.304960625,40.054551171875005,57.200390625,38.949951171875,57.200390625C37.845351171875,57.200390625,36.949951171875,56.304960625,36.949951171875,55.200380625L36.949951171875,48.400390625C36.949951171875,47.295806625,37.845351171875,46.400390625,38.949951171875,46.400390625ZM24.949951171875,46.400390625C26.054561171875,46.400390625,26.949951171875,47.295806625,26.949951171875,48.400390625L26.949951171875,55.200380625C26.949951171875,56.304960625,26.054561171875,57.200390625,24.949951171875,57.200390625C23.845337171875,57.200390625,22.949951171875,56.304960625,22.949951171875,55.200380625L22.949951171875,48.400390625C22.949951171875,47.295806625,23.845337171875,46.400390625,24.949951171875,46.400390625Z" fill-rule="evenodd" fill="#0AAEFF" fill-opacity="1"/><path d="M32.94990234375,6.800430297875C41.14990234375,6.800430297875,47.85000234375,13.400420546875,48.75000234375,21.900460546875L50.35000234375,21.900460546875C56.14890234375,21.900460546875,60.85000234375,26.601460546875,60.85000234375,32.400460546874996C60.85000234375,38.199360546875,56.14890234375,42.900460546875,50.35000234375,42.900460546875L16.04990234375,42.900460546875C8.949952343749999,42.900460546875,3.14990234375,36.900460546874996,3.14990234375,29.400460546875C3.14990234375,21.900460546875,8.949952343749999,15.900420546875,16.04990234375,15.900420546875L18.74990234375,15.900420546875C20.63070234375,16.298280546875,22.38320234375,17.157360546874997,23.84990234375,18.400460546875C24.73350234375,19.063160546875,25.98720234375,18.884160546875002,26.64990234375,18.000460546875C27.33520234375,17.142960546875003,27.20130234375,15.893310546875,26.34990234375,15.200440546875C24.77670234375,13.939510546874999,22.97800234375,12.989320546875,21.04980234375,12.400440546875C23.95250234375,8.813580546875,28.33590234375,6.750823946875,32.94990234375,6.800430297875Z" fill-rule="evenodd" fill="#FFFFFF" fill-opacity="1"/></g></g></svg>