<svg xmlns="http://www.w3.org/2000/svg" xmlns:xlink="http://www.w3.org/1999/xlink" fill="none" version="1.1" width="64" height="64" viewBox="0 0 64 64"><clipPath id="master_svg0_427_471"><rect x="0" y="0" width="64" height="64" rx="0"/></clipPath><g clip-path="url(#master_svg0_427_471)" style="mix-blend-mode:passthrough"><g><path d="M31.2008234375,48.4999689453125C32.8577234375,48.5000689453125,34.2008234375,49.8431689453125,34.2008234375,51.4999689453125C34.2008234375,53.1568689453125,32.8577234375,54.5000689453125,31.2008234375,54.4999689453125L25.1009234375,54.4999689453125C23.4202234375,54.5589689453125,22.0419234375,53.1806689453125,22.1009234375,51.4999689453125C22.0418234375,49.8193689453125,23.4201234375,48.4409689453125,25.1009234375,48.4999689453125L31.2008234375,48.4999689453125ZM44.8008234375,39.4999689453125C46.4423234375,39.4989689453125,47.7574234375,40.8594689453125,47.7008234375,42.4999689453125C47.7574234375,44.1405689453125,46.4424234375,45.5009689453125,44.8008234375,45.4999689453125L37.1008234375,45.4999689453125C35.459323437500004,45.5009689453125,34.1441234375,44.1404689453125,34.2008234375,42.4999689453125C34.1441234375,40.8594689453125,35.459323437500004,39.4990689453125,37.1008234375,39.4999689453125L44.8008234375,39.4999689453125ZM34.2008234375,28.9999689453125C35.8815234375,28.9408689453125,37.2599234375,30.3192689453125,37.2008234375,31.9999689453125C37.2599234375,33.6807689453125,35.8815234375,35.059068945312504,34.2008234375,34.9999689453125L14.5008234375,34.9999689453125C12.8439934375,34.9999689453125,11.5008534375,33.656868945312496,11.5008534375,31.9999689453125C11.5008534375,30.3431689453125,12.8439934375,28.9999689453125,14.5008234375,28.9999689453125L34.2008234375,28.9999689453125ZM56.8008234375,19.9999689453125C58.4577234375,19.9999689453125,59.8008234375,21.3431689453125,59.8008234375,22.9999689453125C59.8008234375,24.6568689453125,58.4577234375,25.9999689453125,56.8008234375,25.9999689453125L25.1009234375,25.9999689453125C23.4440234375,25.9999689453125,22.1009234375,24.6568689453125,22.1009234375,22.9999689453125C22.1009234375,21.3431689453125,23.4440234375,19.9999689453125,25.1009234375,19.9999689453125L56.8008234375,19.9999689453125ZM46.3008234375,9.4999999953125C47.9424234375,9.4990234373125,49.2574234375,10.8594389453125,49.2008234375,12.4999989453125C49.2574234375,14.140498945312501,47.9424234375,15.5009789453125,46.3008234375,15.4999989453125L7.0008534375,15.4999989453125C5.3201334375,15.5590189453125,3.9418335375,14.180668945312501,4.0008544875,12.4999989453125C3.9418335375,10.819278945312501,5.3201334375,9.4409790453125,7.0008534375,9.4999999953125L46.3008234375,9.4999999953125Z" fill-rule="evenodd" fill="#FFFFFF" fill-opacity="1"/><path d="M27.6008234375,39.499991015625C29.2577234375,39.500091015625,30.6008234375,40.843191015624996,30.6008234375,42.500091015625C30.6008234375,44.156891015625,29.2577234375,45.500091015625,27.6008234375,45.499991015625C25.9439234375,45.500091015625,24.6008234375,44.156891015625,24.6008234375,42.500091015625C24.6008234375,40.843191015624996,25.9439234375,39.500091015625,27.6008234375,39.499991015625ZM45.2008234375,29.499991015625C46.8695234375,29.444391015625,48.2626234375,30.761991015625,48.3000234375,32.431191015625004C48.3374234375,34.100491015624996,47.0047234375,35.479091015625,45.3352234375,35.498191015625C43.6656234375,35.517391015625,42.3017234375,34.169691015625,42.3008234375,32.499991015625C42.2442234375,30.859491015625,43.559223437499995,29.498991015625,45.2008234375,29.499991015625ZM15.9008134375,19.499991015625C17.5695834375,19.444401015624997,18.9626434375,20.761891015625,19.0000634375,22.431191015625C19.0374734375,24.100391015625,17.704773437500002,25.478991015625,16.0352134375,25.498191015625C14.3656634375,25.517291015625,13.0017089875,24.169691015625,13.0007934575,22.499991015625C12.9442138375,20.859491015625,14.2592734375,19.498991015625002,15.9008134375,19.499991015625ZM56.9008234375,9.499999995625C58.5696234375,9.444397015625,59.9626234375,10.761901015625,60.0000234375,12.431151015625C60.0375234375,14.100401015625,58.7047234375,15.479001015625,57.0352234375,15.498171015625001C55.3656234375,15.517331015625,54.0017234375,14.169681015624999,54.0008234375,12.500001015625C53.9441234375,10.859441015625,55.2593234375,9.498962402625,56.9008234375,9.499999995625Z" fill-rule="evenodd" fill="#C89B40" fill-opacity="1"/></g></g></svg>