<svg xmlns="http://www.w3.org/2000/svg" xmlns:xlink="http://www.w3.org/1999/xlink" fill="none" version="1.1" width="64" height="64" viewBox="0 0 64 64"><clipPath id="master_svg0_427_442"><rect x="0" y="0" width="64" height="64" rx="0"/></clipPath><g clip-path="url(#master_svg0_427_442)" style="mix-blend-mode:passthrough"><g><path d="M19.849939921875,44.286995640625C19.849939921875,44.386971640625,19.949919921875,44.487007640625,19.849939921875,44.687020640625L19.149929921875,51.087041640625L21.149929921875,51.887031640625C21.479029921875,52.009471640625,21.582669921875002,52.424081640625,21.349939921875,52.687021640625L21.349939921875,52.887031640625L15.949919921875,57.887081640625C15.686979921875,58.119781640625,15.272369921875,58.016081640625,15.149929921875,57.686981640625C15.149929921875,57.587081640625,15.049949921875,57.486981640625004,15.149929921875,57.286981640625L15.849939921875,50.886971640625L13.849940921875,50.086981640625C13.520900721875,49.964481640625,13.417262921875,49.549931640625,13.649928921875,49.286991640625L13.649928921875,49.086981640625L19.049949921875,44.086983640625C19.312889921874998,43.854256640625,19.727499921875,43.957894310625,19.849939921875,44.286995640625ZM31.818569921875,45.987061640625C32.923169921875,45.987061640625,33.818569921874996,46.882511640625,33.818569921874996,47.987061640625L33.818569921874996,53.987081640625C33.818569921874996,55.091581640625,32.923169921875,55.987081640625,31.818569921875,55.987081640625C30.714069921875,55.987081640625,29.818569921875,55.091581640625,29.818569921875,53.987081640625L29.818569921875,47.987061640625C29.818569921875,46.882511640625,30.714069921875,45.987061640625,31.818569921875,45.987061640625Z" fill-rule="evenodd" fill="#0AAEFF" fill-opacity="1"/><path d="M48.849939921875,44.286995640625C48.849939921875,44.386971640625,48.949919921875,44.487007640625,48.849939921875,44.687020640625L48.149929921875,51.087041640625L50.149929921875,51.887031640625C50.479029921875,52.009471640625,50.582669921875,52.424081640625,50.349939921875,52.687021640625L50.349939921875,52.887031640625L44.949919921875,57.887081640625C44.686979921875,58.119781640625,44.272369921875,58.016081640625,44.149929921875,57.686981640625C44.149929921875,57.587081640625,44.049949921875,57.486981640625004,44.149929921875,57.286981640625L44.849939921875,50.886971640625L42.849940921875,50.086981640625C42.520900721875,49.964481640625,42.417262921875,49.549931640625,42.649928921875,49.286991640625L42.649928921875,49.086981640625L48.049949921875,44.086983640625C48.312889921875,43.854256640625,48.727499921875,43.957894310625,48.849939921875,44.286995640625Z" fill-rule="evenodd" fill="#0AAEFF" fill-opacity="1"/><path d="M33.26025390625,5.987060546875C41.46025390625,5.987060546875,48.26025390625,12.587070546875001,49.16025390625,21.087060546875L50.76025390625,21.087060546875C56.55125390625,21.098360546875,61.23975390625,25.796060546875,61.23975390625,31.587060546875C61.23975390625,37.378060546875,56.55125390625,42.075760546875,50.76025390625,42.087060546875L16.26025390625,42.087060546875C8.80438390625,42.087060546875,2.76025390625,36.042860546875005,2.76025390625,28.587060546875C2.76025390625,21.131160546875,8.80438390625,15.087040546875,16.26025390625,15.087040546875C17.16885390625,15.082760546875,18.07485390625,15.183410546875,18.96025390625,15.387020546875L19.06025390625,15.387020546875C20.88905390625,15.792510546875,22.59995390625,16.613760546875,24.06025390625,17.787060546875C24.93235390625,18.420360546875,26.14215390625,18.290660546875,26.86025390625,17.487060546875C27.52295390625,16.603360546875003,27.34385390625,15.349790546875,26.46025390625,14.687040546875C24.90665390625,13.476560546875,23.14415390625,12.561400546875,21.26015390625,11.987030546875001C24.12325390625,8.246340546875,28.54985390625,6.033081046875,33.26025390625,5.987060546875Z" fill-rule="evenodd" fill="#FFFFFF" fill-opacity="1"/></g></g></svg>