<svg xmlns="http://www.w3.org/2000/svg" xmlns:xlink="http://www.w3.org/1999/xlink" fill="none" version="1.1" width="64" height="64" viewBox="0 0 64 64"><clipPath id="master_svg0_427_446"><rect x="0" y="0" width="64" height="64" rx="0"/></clipPath><g clip-path="url(#master_svg0_427_446)" style="mix-blend-mode:passthrough"><g><path d="M40.46986640625,46.7990234375C42.11036640625,46.7424234375,43.47086640625,48.057523437499995,43.46986640625,49.6990234375C43.52896640625,51.3797234375,42.15056640625,52.7580234375,40.46986640625,52.6990234375L11.76995640625,52.6990234375C10.113096406250001,52.6990234375,8.76995640625,51.3559234375,8.76995640625,49.6990234375C8.82391640625,48.081323437500004,10.15136640625,46.798123437499996,11.76995640625,46.7990234375L40.46986640625,46.7990234375ZM7.26989640625,40.7990234375C5.58917640625,40.8580234375,4.21087650625,39.4797234375,4.26989745625,37.7990234375C4.26892089825,36.157523437500004,5.62939640625,34.8424234375,7.26989640625,34.8990234375L48.56986640625,34.8990234375L49.36986640625,34.6990234375C52.11566640625,34.6996234375,54.32596640625,32.4441234375,54.26986640625,29.6990234375C54.32566640625,26.9373734375,52.13156640625,24.6536834375,49.36986640625,24.599003437500002C47.89596640625,24.3309934375,46.82456640625,23.0472434375,46.82456640625,21.5490734375C46.82456640625,20.050963437500002,47.89596640625,18.7671504375,49.36986640625,18.4990234375C55.13716640625,18.9315794375,59.62666640625,23.6842034375,59.73036640625,29.4667234375C59.83406640625,35.2492234375,55.51796640625,40.159823437499995,49.76986640625,40.7990234375L7.26989640625,40.7990234375Z" fill-rule="evenodd" fill="#FFFFFF" fill-opacity="1"/><ellipse cx="21.369921922683716" cy="26.599169969558716" rx="2.700000047683716" ry="2.700000047683716" fill="#C89B40" fill-opacity="1"/><ellipse cx="12.369921922683716" cy="26.599169969558716" rx="2.700000047683716" ry="2.700000047683716" fill="#C89B40" fill-opacity="1"/><ellipse cx="30.369921922683716" cy="26.599169969558716" rx="2.700000047683716" ry="2.700000047683716" fill="#C89B40" fill-opacity="1"/><ellipse cx="41.169970750808716" cy="26.599169969558716" rx="2.700000047683716" ry="2.700000047683716" fill="#C89B40" fill-opacity="1"/><ellipse cx="25.569873094558716" cy="13.999072313308716" rx="2.700000047683716" ry="2.700000047683716" fill="#C89B40" fill-opacity="1"/><ellipse cx="15.769824266433716" cy="13.999072313308716" rx="2.700000047683716" ry="2.700000047683716" fill="#C89B40" fill-opacity="1"/><ellipse cx="35.569873094558716" cy="13.999072313308716" rx="2.700000047683716" ry="2.700000047683716" fill="#C89B40" fill-opacity="1"/></g></g></svg>