<svg xmlns="http://www.w3.org/2000/svg" xmlns:xlink="http://www.w3.org/1999/xlink" fill="none" version="1.1" width="64" height="64" viewBox="0 0 64 64"><clipPath id="master_svg0_427_476"><rect x="0" y="0" width="64" height="64" rx="0"/></clipPath><g clip-path="url(#master_svg0_427_476)" style="mix-blend-mode:passthrough"><g><path d="M32.400048828125,54.09998779296875C33.363648828125,54.03758779296875,34.162448828125,54.83648779296875,34.100048828125,55.79998779296875L34.100048828125,59.99998779296875C34.100048828125,60.93888779296875,33.338948828125,61.69998779296875,32.400048828125,61.69998779296875C31.482548828125,61.65028779296875,30.749748828125,60.91748779296875,30.700048828125,59.99998779296875L30.700048828125,55.79998779296875C30.700048828125,54.86108779296875,31.461148828125,54.09998779296875,32.400048828125,54.09998779296875ZM50.200048828125,47.79998779296875L52.800048828125,50.39998779296875C53.518048828125,51.11788779296875,53.518048828125,52.28198779296875,52.800148828125,52.99998779296875C52.082048828125,53.71798779296875,50.918048828125,53.71798779296875,50.200048828125,52.99998779296875L47.500048828125,50.39998779296875C46.814248828125,49.66898779296875,46.814248828125,48.53098779296875,47.500048828125,47.79998779296875C48.216648828125,46.98738779296875,49.483448828125,46.98738779296875,50.200048828125,47.79998779296875ZM16.000048828125,47.79998779296875C16.806148828125,48.47918779296875,16.806148828125,49.72068779296875,16.000048828125,50.39998779296875L13.400048828125,52.99998779296875C12.681248828125,53.71258779296875,11.521548828125,53.70998779296875,10.805848828125,52.99428779296875C10.090148828124999,52.27848779296875,10.087588828125,51.11888779296875,10.800108828125,50.39998779296875L13.400048828125,47.79998779296875C14.079248828125,46.99398779296875,15.320848828125,46.99398779296875,16.000048828125,47.79998779296875ZM32.000048828125,14.19998779296875C41.609848828125,14.19998779296875,49.400048828125,21.99018779296875,49.400048828125,31.59998779296875C49.400048828125,41.20968779296875,41.609748828125,48.99998779296875,32.000048828125,48.99998779296875C22.390248828125,48.99998779296875,14.600048828125,41.20968779296875,14.600048828125,31.59998779296875C14.600048828125,21.99018779296875,22.390348828125,14.19998779296875,32.000048828125,14.19998779296875ZM60.000048828125,29.89998779296875C60.938948828125,29.89998779296875,61.700048828125,30.66108779296875,61.700048828125,31.59998779296875C61.650348828125,32.51748779296875,60.917648828125,33.25028779296875,60.000048828125,33.29998779296875L55.800048828125,33.29998779296875C54.861148828125,33.29998779296875,54.100048828125,32.53888779296875,54.100048828125,31.59998779296875C54.037648828125,30.63638779296875,54.836548828125,29.83758779296875,55.800048828125,29.89998779296875L60.000048828125,29.89998779296875ZM8.200068828125,29.89998779296875C9.163638828125,29.83758779296875,9.962458828125001,30.63648779296875,9.900088828125,31.59998779296875C9.900028828125,32.53888779296875,9.138918828125,33.29998779296875,8.200068828125,33.29998779296875L4.000058828125,33.29998779296875C3.082519828125,33.25028779296875,2.349731428125,32.51748779296875,2.300048828125,31.59998779296875C2.300048828125,30.66108779296875,3.061156828125,29.89998779296875,4.000058828125,29.89998779296875L8.200068828125,29.89998779296875ZM52.800048828125,10.99998779296875C53.485848828125,11.73096779296875,53.485848828125,12.86898779296875,52.800048828125,13.59998779296875L50.200048828125,16.19998779296875C49.483448828125,17.012587792968752,48.216648828125,17.012587792968752,47.500048828125,16.19998779296875C46.814248828125,15.46898779296875,46.814248828125,14.33098779296875,47.500048828125,13.59998779296875L50.200048828125,10.99998779296875C50.931048828125,10.31419779296875,52.069048828125,10.31419779296875,52.800048828125,10.99998779296875ZM13.400048828125,10.99998779296875L16.000048828125,13.59998779296875C16.718048828125,14.31798779296875,16.718048828125,15.48208779296875,16.000148828125,16.19998779296875C15.282148828125,16.917987792968752,14.118048828125,16.917987792968752,13.400048828125,16.19998779296875L10.800048828125,13.59998779296875C10.082088828125,12.88198779296875,10.082088828125,11.71796779296875,10.800048828125,10.99999779296875C11.518068828125,10.28202779296875,12.682048828125,10.28202779296875,13.400048828125,10.99998779296875ZM32.400048828125,2.29998779296875C33.338948828125,2.29997253416875,34.100048828125,3.06109579296875,34.100048828125,3.99998779296875L34.100048828125,8.199977792968749C34.162448828125,9.16349779296875,33.363548828125005,9.962307792968751,32.400048828125,9.89997779296875C31.461148828125,9.89997779296875,30.700048828125,9.13886779296875,30.700048828125,8.199977792968749L30.700048828125,3.99998779296875C30.749748828125,3.08245879296875,31.482548828125,2.34967039296875,32.400048828125,2.29998779296875Z" fill-rule="evenodd" fill="#FFB443" fill-opacity="1"/></g></g></svg>