<svg xmlns="http://www.w3.org/2000/svg" xmlns:xlink="http://www.w3.org/1999/xlink" fill="none" version="1.1" width="64" height="64" viewBox="0 0 64 64"><clipPath id="master_svg0_427_436"><rect x="0" y="0" width="64" height="64" rx="0"/></clipPath><g clip-path="url(#master_svg0_427_436)" style="mix-blend-mode:passthrough"><g><path d="M34.54990234375,24.9000244138125C42.24990234375,24.9000244138125,48.54990234375,31.2000161328125,49.34990234375,39.3000361328125L50.84990234375,39.1000361328125C56.37280234375,39.1000361328125,60.84990234375,43.5771361328125,60.84990234375,49.100036132812505C60.84990234375,54.622836132812495,56.37280234375,59.1000361328125,50.84990234375,59.1000361328125L18.74990234375,59.1000361328125C12.049892343749999,59.1000361328125,6.64990234375,53.4000361328125,6.64990234375,46.3000361328125C6.64990234375,39.2000361328125,12.049892343749999,33.4000261328125,18.74990234375,33.4000261328125L21.24990234375,33.4000261328125C23.02490234375,33.7874761328125,24.67490234375,34.6124561328125,26.04990234375,35.8000361328125C26.85830234375,36.4080361328125,28.00130234375,36.276136132812496,28.64990234375,35.5000361328125C29.39080234375,34.6957661328125,29.24930234375,33.4220561328125,28.34990234375,32.8000161328125C26.89140234375,31.6139261328125,25.23170234375,30.6994061328125,23.44990234375,30.1000061328125C26.17280234375,26.7767661328125,30.25380234375,24.8649292328125,34.54990234375,24.9000244138125Z" fill-rule="evenodd" fill="#FFFFFF" fill-opacity="1"/><path d="M12.14990234375,30.3000244140625C10.37423234375,21.7953244140625,16.86180234375,13.8069044140625,25.54990234375,13.8000144140625C30.56360234375,13.8292844140625,35.17890234375,16.5374244140625,37.64990234375,20.9000244140625C36.56120234375,20.701024414062502,35.45670234375,20.6006244140625,34.34990234375,20.6000244140625C27.89760234375,20.6431244140625,21.89360234375,23.9078244140625,18.34990234375,29.3000244140625L17.74990234375,29.3000244140625C15.84100234375,29.3239244140625,13.94910234375,29.6617244140625,12.14990234375,30.3000244140625ZM20.64990234375,8.0000144140625C20.59430234375,6.3312644140625,21.91180234375,4.9381866140625,23.58110234375,4.9007873530625C25.25030234375,4.8633575140625,26.62890234375,6.1960144140625,26.64810234375,7.8655744140625C26.66720234375,9.5351444140625,25.31960234375,10.8990944140625,23.64990234375,10.9000044140625C22.00940234375,10.956584414062501,20.64890234375,9.641514414062499,20.64990234375,8.0000144140625ZM8.349912343749999,16.4000244140625C7.27032234375,15.2465244140625,7.27032234375,13.4534944140625,8.349912343749999,12.300014414062499C9.53665234375,11.2071544140625,11.36319234375,11.2071544140625,12.54992234375,12.300014414062499C13.62950234375,13.4534944140625,13.62950234375,15.2465244140625,12.54992234375,16.4000244140625C11.40707234375,17.6000244140625,9.49276234375,17.6000244140625,8.349912343749999,16.4000244140625ZM41.74990234375,15.5000244140625C40.59650234375,16.5796244140625,38.80340234375,16.5796244140625,37.64990234375,15.5000244140625C36.44990234375,14.3571744140625,36.44990234375,12.442884414062501,37.64990234375,11.3000344140625C38.80340234375,10.2204544140625,40.59650234375,10.2204544140625,41.74990234375,11.3000344140625C42.94990234375,12.442884414062501,42.94990234375,14.3571644140625,41.74990234375,15.5000244140625ZM5.94992234375,30.3000244140625C4.36245234375,30.2452244140625,3.11447144375,28.9236244140625,3.15066528275,27.3356244140625C3.18685914375,25.7476244140625,4.49380234375,24.4843244140625,6.08209234375,24.5019244140625C7.67038234375,24.5195244140625,8.94894234375,25.8116244140625,8.94992234375,27.4000244140625C8.950892343749999,29.0415244140625,7.59042234375,30.3566244140625,5.94992234375,30.3000244140625Z" fill-rule="evenodd" fill="#FFB443" fill-opacity="1"/></g></g></svg>