<svg xmlns="http://www.w3.org/2000/svg" xmlns:xlink="http://www.w3.org/1999/xlink" fill="none" version="1.1" width="64" height="64" viewBox="0 0 64 64"><clipPath id="master_svg0_427_423"><rect x="0" y="0" width="64" height="64" rx="0"/></clipPath><g clip-path="url(#master_svg0_427_423)" style="mix-blend-mode:passthrough"><g><path d="M32.900048828125,13.949996948242188C41.100048828125,13.949996948242188,47.800048828125,20.55000694824219,48.600048828125,29.04999694824219L50.200048828125,29.04999694824219C55.999048828125,29.04999694824219,60.700048828125,33.75099694824219,60.700048828125,39.54999694824219C60.700048828125,45.34899694824219,55.999048828125,50.04999694824219,50.200048828125,50.04999694824219L16.100048828125,50.04999694824219C9.000048828125,50.04999694824219,3.300048828125,43.94999694824219,3.300048828125,36.54999694824219C3.300048828125,29.149996948242187,9.000048828125,23.050006948242185,16.100048828125,23.050006948242185C17.008848828125,23.040086948242188,17.915548828125,23.140796948242187,18.800048828125,23.34998694824219C21.280148828125,17.748026948242188,26.775148828125,14.084731948242187,32.900048828125,13.949996948242188ZM31.800048828125,41.14999694824219C31.187648828125,41.125896948242186,30.597948828125,41.38389694824219,30.200048828125,41.849996948242186C29.720948828125,42.23819694824219,29.459948828125,42.83469694824218,29.500048828125,43.44999694824219C29.475948828125,44.062496948242185,29.733848828125,44.65209694824219,30.200048828125,45.04999694824219C31.111148828125,45.86489694824219,32.488948828125004,45.86489694824219,33.400048828125,45.04999694824219C33.866248828124995,44.65209694824219,34.124148828125,44.06239694824219,34.100048828125,43.44999694824219C34.135848828125,42.85579694824219,33.917748828125,42.27419694824219,33.500048828125,41.849996948242186C33.062648828125,41.379696948242184,32.441748828125,41.12399694824219,31.800048828125,41.14999694824219ZM32.100048828125,21.949996948242188C30.187848828125,21.896986948242187,28.327648828125,22.576676948242188,26.900048828125,23.84998694824219C25.599048828125,25.260896948242188,24.915048828125,27.132696948242188,25.000048828125,29.04999694824219L25.000048828125,29.249996948242188C25.101948828125,30.109996948242188,25.834048828125,30.75599694824219,26.700048828125,30.749996948242188C27.617548828125,30.700296948242187,28.350348828125,29.967496948242186,28.400048828125,29.04999694824219C28.319448828125,28.03349694824219,28.564648828125,27.017796948242186,29.100048828125,26.149996948242187C29.770948828125,25.302896948242186,30.823948828125,24.85159694824219,31.900048828125,24.949996948242188C32.775948828124996,24.875696948242187,33.643948828125005,25.164996948242187,34.300048828125,25.749996948242188C34.825748828125,26.40039694824219,35.108648828125,27.213596948242188,35.100048828125,28.04999694824219C35.120848828125,28.858096948242185,34.835048828125,29.64399694824219,34.300048828125,30.249996948242188L34.000048828125,30.649996948242187C32.619548828125005,31.701596948242187,31.434848828125,32.98789694824219,30.500048828125,34.44999694824219C30.068748828125,35.353996948242184,29.862848828125,36.34899694824219,29.900048828125,37.349996948242186L29.900048828125,37.749996948242185C29.949748828125,38.66749694824219,30.682548828125,39.400296948242186,31.600048828125,39.44999694824219C32.538948828125,39.449896948242184,33.300048828125,38.688796948242185,33.300048828125,37.749996948242185L33.300048828125,37.349996948242186C33.310248828125,36.68549694824219,33.481848828124996,36.033396948242185,33.800048828125,35.44999694824219C34.015248828124996,34.85479694824219,34.397148828125,34.33419694824219,34.900048828125,33.94999694824219C36.300048828125,32.64999694824219,37.200048828125,31.949996948242188,37.500048828125,31.54999694824219C38.251048828125,30.465096948242188,38.636448828125,29.168896948242185,38.600048828125,27.849996948242186C38.681448828125,26.218096948242188,38.019648828125,24.637196948242188,36.800048828125,23.54997694824219C35.481548828125,22.460306948242188,33.809648828125,21.891156948242187,32.100048828125,21.949996948242188Z" fill-rule="evenodd" fill="#FFFFFF" fill-opacity="1"/></g></g></svg>