<svg xmlns="http://www.w3.org/2000/svg" xmlns:xlink="http://www.w3.org/1999/xlink" fill="none" version="1.1" width="64" height="64" viewBox="0 0 64 64"><clipPath id="master_svg0_427_581"><rect x="0" y="0" width="64" height="64" rx="0"/></clipPath><g clip-path="url(#master_svg0_427_581)" style="mix-blend-mode:passthrough"><g><path d="M16.049931171875,47.2989501953125C17.209721171875,47.2990417480125,18.149901171875,48.2392271953125,18.149901171875,49.3989601953125L18.149901171875,56.1989401953125C18.211421171875,57.2727401953125,17.323731171875,58.1604501953125,16.249881171875,58.0989501953125L16.049931171875,58.0989501953125C14.864380171875,57.9071501953125,13.982665971875,56.8995101953125,13.949951171875,55.6989401953125L13.949951171875,49.3989601953125C13.949951171875,48.2391661953125,14.890137171875,47.2989807129125,16.049931171875,47.2989501953125ZM41.249851171875,47.2989501953125C42.409651171875,47.2989807129125,43.349851171875,48.2391661953125,43.349851171875,49.3989601953125L43.349851171875,55.9989601953125C43.349851171875,57.1587501953125,42.409651171875,58.0989501953125,41.249851171875,58.0989501953125C40.090051171875004,58.0989501953125,39.149951171875,57.1587501953125,39.149951171875,55.9989601953125L39.149951171875,49.3989601953125C39.149951171875,48.2391661953125,40.090051171875004,47.2989807129125,41.249851171875,47.2989501953125ZM24.449851171875,47.2989501953125C25.609651171875,47.2989807129125,26.549951171875,48.2391971953125,26.549851171874998,49.3989601953125L26.549851171874998,55.9989601953125C26.549951171875,57.1587501953125,25.609651171875,58.0989501953125,24.449851171875,58.0989501953125C23.290041171875,58.0989501953125,22.349851171875002,57.1587501953125,22.349851171875002,55.9989601953125L22.349851171875002,49.3989601953125C22.349731171875,48.2391971953125,23.290041171875,47.2989807129125,24.449851171875,47.2989501953125ZM32.849851171875,47.2989501953125C34.009651171875,47.2989807129125,34.949851171875,48.2391661953125,34.949851171875,49.3989601953125L34.949851171875,55.9989601953125C34.949851171875,57.1587501953125,34.009651171875,58.0989501953125,32.849851171875,58.0989501953125C31.690051171875,58.0989501953125,30.749851171875,57.1587501953125,30.749851171875,55.9989601953125L30.749851171875,49.3989601953125C30.749751171875,48.2391971953125,31.690051171875,47.2989807129125,32.849851171875,47.2989501953125ZM49.649951171875,47.2989501953125C50.809651171875,47.2990417480125,51.749851171875,48.2392271953125,51.749851171875,49.3989601953125L51.749851171875,55.9989601953125C51.740851171875,57.1523401953125,50.803351171875,58.0825501953125,49.649951171875,58.0825501953125C48.496451171875,58.0825501953125,47.558951171875,57.1523101953125,47.549951171875,55.9989601953125L47.549951171875,49.3989601953125C47.550051171875,48.2391361953125,48.490151171875,47.2989807129125,49.649951171875,47.2989501953125Z" fill-rule="evenodd" fill="#0AAEFF" fill-opacity="1"/><path d="M32.94990234375,5.8989562990625C41.14990234375,5.8989562990625,47.85000234375,12.4989512890625,48.75000234375,20.9989712890625L50.35000234375,20.9989712890625C56.14890234375,20.9989712890625,60.85000234375,25.6999712890625,60.85000234375,31.4989712890625C60.85000234375,37.2979712890625,56.14890234375,41.9989712890625,50.35000234375,41.9989712890625L16.04990234375,41.9989712890625C8.949952343749999,41.9989712890625,3.14990234375,35.998971289062496,3.14990234375,28.4989712890625C3.14990234375,20.9989712890625,8.949952343749999,14.9989512890625,16.04990234375,14.9989512890625L18.74990234375,14.9989512890625C20.63090234375,15.3968012890625,22.38340234375,16.255871289062497,23.84990234375,17.4989712890625C24.73350234375,18.1617712890625,25.98720234375,17.982671289062502,26.64990234375,17.0989712890625C27.33520234375,16.241471289062503,27.20130234375,14.9918412890625,26.34990234375,14.2989612890625C24.77670234375,13.0380412890625,22.97800234375,12.0878412890625,21.04980234375,11.4989612890625C23.95250234375,7.9120812890625,28.33590234375,5.8493041890625,32.94990234375,5.8989562990625Z" fill-rule="evenodd" fill="#FFFFFF" fill-opacity="1"/></g></g></svg>