<svg xmlns="http://www.w3.org/2000/svg" xmlns:xlink="http://www.w3.org/1999/xlink" fill="none" version="1.1" width="64" height="64" viewBox="0 0 64 64"><clipPath id="master_svg0_427_584"><rect x="0" y="0" width="64" height="64" rx="0"/></clipPath><g clip-path="url(#master_svg0_427_584)" style="mix-blend-mode:passthrough"><g><path d="M31.99988234375,47.2989501953125C33.15967234375,47.2989807129125,34.09985234375,48.2391661953125,34.09985234375,49.3989601953125L34.09985234375,55.9989601953125C34.09985234375,57.1587501953125,33.15967234375,58.0989501953125,31.99988234375,58.0989501953125C30.84008834375,58.0989501953125,29.89990234375,57.1587501953125,29.89990234375,55.9989601953125L29.89990234375,49.3989601953125C29.89978027375,48.2391971953125,30.84008834375,47.2989807129125,31.99988234375,47.2989501953125Z" fill-rule="evenodd" fill="#0AAEFF" fill-opacity="1"/><path d="M32.94990234375,5.8989562990625C41.14990234375,5.8989562990625,47.85000234375,12.4989512890625,48.75000234375,20.9989712890625L50.35000234375,20.9989712890625C56.14890234375,20.9989712890625,60.85000234375,25.6999712890625,60.85000234375,31.4989712890625C60.85000234375,37.2979712890625,56.14890234375,41.9989712890625,50.35000234375,41.9989712890625L16.04990234375,41.9989712890625C8.949952343749999,41.9989712890625,3.14990234375,35.998971289062496,3.14990234375,28.4989712890625C3.14990234375,20.9989712890625,8.949952343749999,14.9989512890625,16.04990234375,14.9989512890625L18.74990234375,14.9989512890625C20.63090234375,15.3968012890625,22.38340234375,16.255871289062497,23.84990234375,17.4989712890625C24.73350234375,18.1617712890625,25.98720234375,17.982671289062502,26.64990234375,17.0989712890625C27.33520234375,16.241471289062503,27.20130234375,14.9918412890625,26.34990234375,14.2989612890625C24.77670234375,13.0380412890625,22.97800234375,12.0878412890625,21.04980234375,11.4989612890625C23.95250234375,7.9120812890625,28.33590234375,5.8493041890625,32.94990234375,5.8989562990625Z" fill-rule="evenodd" fill="#FFFFFF" fill-opacity="1"/></g></g></svg>