<svg xmlns="http://www.w3.org/2000/svg" xmlns:xlink="http://www.w3.org/1999/xlink" fill="none" version="1.1" width="64" height="64" viewBox="0 0 64 64"><clipPath id="master_svg0_427_487"><rect x="0" y="0" width="64" height="64" rx="0"/></clipPath><g clip-path="url(#master_svg0_427_487)" style="mix-blend-mode:passthrough"><g><ellipse cx="15.5" cy="13.949951171875" rx="3.5" ry="3.5" fill="#C89B40" fill-opacity="1"/><path d="M49.2001,29.149986328125L49.4,29.149986328125C50.8911,29.149986328125,52.1,27.941086328125,52.1,26.449986328125C52.1,24.958786328125,50.8911,23.749986328125,49.4,23.749986328125C48.5012,23.726086328125,47.6455,24.135286328124998,47.1,24.849986328125C46.1222,26.053886328125,44.3879,26.314086328125,43.1,25.449986328125C41.8187,24.607986328125,41.5405,22.845786328125,42.5,21.649986328125C44.1873,19.581186328125,46.7308,18.401516328125,49.4,18.449986328125C54.1,18.449986328125,58,22.049986328125,58,26.449986328125C58,30.849986328125,54.1,34.449986328125,49.4,34.449986328125L8.80005,34.449986328125C7.32855,34.453686328125,6.105225,33.317786328124996,6.0000610352,31.849986328125C6.0541992,30.358286328125,7.30847,29.193686328125,8.80005,29.249986328125L49.2001,29.249986328125L49.2001,29.149986328125ZM29.2001,19.149986328125L29.4,19.149986328125C30.8911,19.149886328125,32.1,17.941096328125,32.1,16.449946328125C32.1,14.958766328125,30.8911,13.749936328124999,29.4,13.749966328125C28.473,13.725956328125001,27.587,14.132046328125,27,14.849976328124999C26.0222,16.053896328125,24.288,16.314026328125,23,15.449986328125C21.7188,14.608006328125,21.4404,12.845796328125001,22.4,11.649996328124999C24.1276,9.577336328125,26.7023,8.400360128125,29.4,8.449981688125C34.1,8.449981688125,38,12.049986328125,38,16.449986328125C38,20.849986328125,34.1,24.449986328125,29.4,24.449986328125L8.90002,24.449986328125C7.3902,24.507686328125,6.106812,23.357186328125,6,21.849986328125C6.0524902,20.316886328125,7.37024,19.135486328124998,8.90002,19.249986328125L29.2001,19.249986328125L29.2001,19.149986328125ZM33.8,39.549986328125L34.5,39.549986328125C38.9183,39.549986328125,42.5,43.131686328125,42.5,47.549986328125C42.5,51.968286328125,38.9183,55.549986328125,34.5,55.549986328125C31.8308,55.598486328125,29.2872,54.418786328125,27.6,52.349986328125C26.6405,51.154186328125,26.9187,49.391986328125,28.2,48.549986328125C29.4879,47.685986328125,31.2222,47.946086328125,32.2,49.149986328125C32.7344,49.878286328125,33.5975,50.291186328125,34.5,50.249986328125C35.9912,50.249886328125,37.2,49.041086328125,37.2,47.549886328125C37.2,46.058686328125,35.9911,44.849886328125,34.5,44.849886328125L8.799990000000001,44.849886328125C7.30847,44.906086328125,6.0542603,43.741586328125,6,42.249986328125C6.105103,40.782186328125,7.32849,39.646186328125,8.799990000000001,39.649986328124996L33.7999,39.649986328124996L33.8,39.549986328125Z" fill-rule="evenodd" fill="#FFFFFF" fill-opacity="1"/><ellipse cx="15.5" cy="51.949951171875" rx="3.5" ry="3.5" fill="#C89B40" fill-opacity="1"/></g></g></svg>