<svg xmlns="http://www.w3.org/2000/svg" xmlns:xlink="http://www.w3.org/1999/xlink" fill="none" version="1.1" width="64" height="64" viewBox="0 0 64 64"><clipPath id="master_svg0_427_533"><rect x="0" y="0" width="64" height="64" rx="0"/></clipPath><g clip-path="url(#master_svg0_427_533)" style="mix-blend-mode:passthrough"><g><path d="M19.358800000000002,15.45013L19.9863,15.45013C21.6647,15.87438,23.2268,16.66444,24.5587,17.7628C25.3509,18.3769,26.4949,18.2375,27.1138,17.4515C27.7328,16.66552,27.5923,15.53051,26.8001,14.91644C25.4197,13.70976,23.8016,12.80105,22.0483,12.247969999999999C24.6053,8.96805,28.538,7.0336327,32.7173,7C40.069,7,46.0759,13.04851,46.8828,20.787100000000002L48.3173,20.787100000000002C53.6649,20.787100000000002,58,25.088,58,30.3935C58,35.699,53.665,36.5,48.3174,36.5L17.5654,36.5C11.19993,36.5,6,34.4852,6,27.6361C6,20.787100000000002,11.200040000000001,15.27225,17.5655,15.27225L19.3586,15.27225L19.358800000000002,15.45013Z" fill-rule="evenodd" fill="#FFFFFF" fill-opacity="1"/><g style="mix-blend-mode:passthrough"><rect x="5" y="52" width="12" height="6" rx="3" fill="#FFFFFF" fill-opacity="1"/></g><g style="mix-blend-mode:passthrough"><rect x="21" y="52" width="37" height="6" rx="3" fill="#FFFFFF" fill-opacity="1"/></g><g style="mix-blend-mode:passthrough"><rect x="5" y="42" width="53" height="6" rx="3" fill="#FFFFFF" fill-opacity="1"/></g></g></g></svg>