<svg xmlns="http://www.w3.org/2000/svg" xmlns:xlink="http://www.w3.org/1999/xlink" fill="none" version="1.1" width="64" height="64" viewBox="0 0 64 64"><clipPath id="master_svg0_427_478"><rect x="0" y="0" width="64" height="64" rx="0"/></clipPath><g clip-path="url(#master_svg0_427_478)" style="mix-blend-mode:passthrough"><g><path d="M52.4999689453125,46.4999689453125C54.1807689453125,46.4409689453125,55.5590689453125,47.8192689453125,55.4999689453125,49.4999689453125C55.5590689453125,51.1807689453125,54.1807689453125,52.559068945312504,52.4999689453125,52.4999689453125L11.4999989453125,52.4999689453125C9.819278945312501,52.559068945312504,8.4409179453125,51.180668945312505,8.4999999953125,49.4999689453125C8.4409179453125,47.8193689453125,9.819278945312501,46.4409689453125,11.4999989453125,46.4999689453125L52.4999689453125,46.4999689453125ZM52.4999689453125,34.4999999953125C54.1807689453125,34.4409790453125,55.5590689453125,35.8192789453125,55.4999689453125,37.4999989453125C55.5590689453125,39.1806689453125,54.1807689453125,40.5590189453125,52.4999689453125,40.4999989453125L11.4999989453125,40.4999989453125C9.819278945312501,40.5590189453125,8.4409179453125,39.1806689453125,8.4999999953125,37.4999989453125C8.4409179453125,35.8193389453125,9.819278945312501,34.4409790453125,11.4999989453125,34.4999999953125L52.4999689453125,34.4999999953125Z" fill-rule="evenodd" fill="#FFFFFF" fill-opacity="1"/><path d="M26.4999689453125,23.4999689453125C28.1568689453125,23.4999689453125,29.4999689453125,24.8431689453125,29.4999689453125,26.4999689453125C29.4999689453125,28.1568689453125,28.1568689453125,29.4999689453125,26.4999689453125,29.4999689453125C24.8431689453125,29.4999689453125,23.4999689453125,28.1568689453125,23.4999689453125,26.4999689453125C23.440868945312502,24.8192689453125,24.8192689453125,23.4409689453125,26.4999689453125,23.4999689453125ZM13.4999989453125,23.4999689453125C15.1568589453125,23.4999689453125,16.499998945312498,24.8431689453125,16.499998945312498,26.4999689453125C16.499998945312498,28.1568689453125,15.1568589453125,29.4999689453125,13.4999989453125,29.4999689453125C11.8431389453125,29.4999689453125,10.4999999953125,28.1568689453125,10.4999999953125,26.4999689453125C10.4409179453125,24.8192689453125,11.819278945312501,23.4409689453125,13.4999989453125,23.4999689453125ZM39.4999689453125,23.4999689453125C41.156868945312496,23.4999689453125,42.4999689453125,24.8431689453125,42.4999689453125,26.4999689453125C42.4999689453125,28.1568689453125,41.156868945312496,29.4999689453125,39.4999689453125,29.4999689453125C37.8431689453125,29.4999689453125,36.4999689453125,28.1568689453125,36.4999689453125,26.4999689453125C36.4408689453125,24.8192689453125,37.8192689453125,23.4409689453125,39.4999689453125,23.4999689453125ZM52.4999689453125,23.4999689453125C54.1568689453125,23.4999689453125,55.4999689453125,24.8431689453125,55.4999689453125,26.4999689453125C55.4999689453125,28.1568689453125,54.1568689453125,29.4999689453125,52.4999689453125,29.4999689453125C50.8431689453125,29.4999689453125,49.4999689453125,28.1568689453125,49.4999689453125,26.4999689453125C49.4408689453125,24.8192689453125,50.8192689453125,23.4409689453125,52.4999689453125,23.4999689453125ZM26.4999689453125,11.4999999953125C28.1568689453125,11.4999999953125,29.4999689453125,12.8431389453125,29.4999689453125,14.4999989453125C29.4999689453125,16.1568589453125,28.1568689453125,17.499998945312498,26.4999689453125,17.499998945312498C24.8431689453125,17.499998945312498,23.4999689453125,16.1568589453125,23.4999689453125,14.4999989453125C23.440868945312502,12.8193089453125,24.8192689453125,11.4409790453125,26.4999689453125,11.4999999953125ZM13.4999989453125,11.4999999953125C15.1568589453125,11.4999999953125,16.499998945312498,12.8431389453125,16.499998945312498,14.4999989453125C16.499998945312498,16.1568589453125,15.1568589453125,17.499998945312498,13.4999989453125,17.499998945312498C11.8431389453125,17.499998945312498,10.4999999953125,16.1568589453125,10.4999999953125,14.4999989453125C10.4409179453125,12.8193089453125,11.819278945312501,11.4409790453125,13.4999989453125,11.4999999953125ZM39.4999689453125,11.4999999953125C41.156868945312496,11.4999999953125,42.4999689453125,12.8431389453125,42.4999689453125,14.4999989453125C42.4999689453125,16.1568589453125,41.156868945312496,17.499998945312498,39.4999689453125,17.499998945312498C37.8431689453125,17.499998945312498,36.4999689453125,16.1568589453125,36.4999689453125,14.4999989453125C36.4408689453125,12.8193089453125,37.8192689453125,11.4409790453125,39.4999689453125,11.4999999953125ZM52.4999689453125,11.4999999953125C54.1568689453125,11.4999999953125,55.4999689453125,12.8431389453125,55.4999689453125,14.4999989453125C55.4999689453125,16.1568589453125,54.1568689453125,17.499998945312498,52.4999689453125,17.499998945312498C50.8431689453125,17.499998945312498,49.4999689453125,16.1568589453125,49.4999689453125,14.4999989453125C49.4408689453125,12.8193089453125,50.8192689453125,11.4409790453125,52.4999689453125,11.4999999953125Z" fill-rule="evenodd" fill="#C89B40" fill-opacity="1"/></g></g></svg>