<svg xmlns="http://www.w3.org/2000/svg" xmlns:xlink="http://www.w3.org/1999/xlink" fill="none" version="1.1" width="64" height="64" viewBox="0 0 64 64"><clipPath id="master_svg0_439_969"><rect x="0" y="0" width="64" height="64" rx="0"/></clipPath><g clip-path="url(#master_svg0_439_969)" style="mix-blend-mode:passthrough"><g><path d="M49.2001,39.701499999999996L49.4,39.701499999999996C50.8911,39.701499999999996,52.1,38.492599999999996,52.1,37.0015C52.1,35.5103,50.8911,34.301500000000004,49.4,34.301500000000004C48.5012,34.2776,47.6455,34.6868,47.1,35.4015C46.1222,36.6054,44.3879,36.8656,43.1,36.0015C41.8187,35.1595,41.5405,33.3973,42.5,32.201499999999996C44.1873,30.1327,46.7308,28.95303,49.4,29.0015C54.1,29.0015,58,32.6015,58,37.0015C58,41.4015,54.1,45.0015,49.4,45.0015L8.80005,45.0015C7.32855,45.0052,6.105225,43.869299999999996,6.0000610352,42.4015C6.0541992,40.909800000000004,7.30847,39.7452,8.80005,39.801500000000004L49.2001,39.801500000000004L49.2001,39.701499999999996ZM31.2001,29.7014L31.4,29.7014C32.8911,29.7014,34.1,28.49261,34.1,27.00146C34.1,25.51028,32.8911,24.301479999999998,31.4,24.30151C30.473,24.2775,29.587,24.68356,29,25.40149C28.0222,26.60541,26.288,26.86551,25,26.00146C23.7188,25.159480000000002,23.4404,23.39734,24.4,22.20154C26.1276,20.12888,28.7023,18.9518433,31.4,19.00146484C36.1,19.00146484,40,22.60147,40,27.00146C40,31.4015,36.1,35.0015,31.4,35.0015L12.90002,35.0015C11.3902,35.059200000000004,10.10681,33.908699999999996,10,32.4015C10.052489999999999,30.8684,11.370239999999999,29.686999999999998,12.90002,29.8015L31.2001,29.8015L31.2001,29.7014Z" fill-rule="evenodd" fill="#FFFFFF" fill-opacity="1"/></g></g></svg>