<svg xmlns="http://www.w3.org/2000/svg" xmlns:xlink="http://www.w3.org/1999/xlink" fill="none" version="1.1" width="64" height="64" viewBox="0 0 64 64"><clipPath id="master_svg0_427_646"><rect x="0" y="0" width="64" height="64" rx="0"/></clipPath><g clip-path="url(#master_svg0_427_646)"><g><path d="M51.95620390625,32.3107875C47.76850390625,21.1677875,32.85820390625,20.5677875,36.459203906249996,4.3708175C36.59610390625,3.8403975,36.39960390625,3.2797715,35.961603906250005,2.9508105000000002C35.52360390625,2.6218503,34.93040390625,2.5894785,34.459203906249996,2.8688165C24.77650390625,8.7134875,17.81483390625,20.4301875,23.65620390625,35.7791875C24.13620390625,37.0354875,22.69580390625,38.2097875,21.65620390625,37.3904875C16.82850390625,33.6487875,16.32283390625,28.2684875,16.74850390625,24.4174875C16.83490390625,23.8021875,16.48486390625,23.2087875,15.90456390625,22.9867875C15.32426390625,22.7647875,14.66752390625,22.9729875,14.32117390625,23.4887875C12.50683390625,26.3294875,10.66650390625,30.9177875,10.66650390625,37.8274875C11.68017390625,53.1221875,24.29620390625,57.8194875,28.83080390625,58.4204875C35.312203906250005,59.2671875,42.32720390625,58.0381875,47.36850390625,53.3131875C52.91620390625,48.0421875,54.94350390625,39.6301875,51.95620390625,32.3107875ZM27.20350390625,46.0484875C31.04450390625,45.0924875,33.01820390625,42.2521875,33.551503906250005,39.7394875C34.431803906249996,35.8337875,30.99080390625,32.0101875,33.311503906249996,25.8394875C34.19180390625,30.9451875,42.03320390625,34.1404875,42.03320390625,39.7121875C42.24720390625,46.6221875,34.93880390625,52.5487875,27.20350390625,46.0484875Z" fill="#FFFFFF" fill-opacity="1"/></g></g></svg>