<svg xmlns="http://www.w3.org/2000/svg" xmlns:xlink="http://www.w3.org/1999/xlink" fill="none" version="1.1" width="64" height="64" viewBox="0 0 64 64"><clipPath id="master_svg0_427_497"><rect x="0" y="0" width="64" height="64" rx="0"/></clipPath><g clip-path="url(#master_svg0_427_497)" style="mix-blend-mode:passthrough"><g><path d="M55.78544609375,23.9400204296875L55.943646093750004,23.9400204296875C57.12284609375,23.9400204296875,58.07904609375,22.9840304296875,58.07904609375,21.804670429687498C58.07904609375,20.6253204296875,57.12284609375,19.6691904296875,55.943646093750004,19.6692104296875C55.232746093749995,19.6503204296875,54.55584609375,19.9740304296875,54.124446093749995,20.539270429687498C53.35114609375,21.4914604296875,51.97954609375,21.6972004296875,50.96084609375,21.0137804296875C49.94754609375,20.347820429687502,49.727646093749996,18.9541204296875,50.486446093750004,18.0083704296875C51.82084609375,16.3721704296875,53.83254609375,15.4392490296875,55.943646093750004,15.4775770296875C59.66074609375,15.4775770296875,62.74534609375,18.3247704296875,62.74534609375,21.804670429687498C62.74534609375,25.2845704296875,59.66074609375,28.1317404296875,55.943646093750004,28.1317404296875L37.704276093749996,28.1317404296875C36.54048609375,28.1347404296875,35.57291879375,27.2362404296875,35.48974609375,26.0753404296875C35.53256339375,24.8956604296875,36.52460609375,23.974590429687503,37.704276093749996,24.019090429687502L55.78544609375,24.019090429687502L55.78544609375,23.9400204296875ZM47.56014609375,30.4381404296875L48.11384609375,30.4381404296875C51.60824609375,30.4381404296875,54.44094609375,33.270840429687496,54.44094609375,36.765240429687495C54.44094609375,40.259540429687505,51.60824609375,43.092340429687496,48.11384609375,43.092340429687496C46.00274609375,43.1306404296875,43.99108609375,42.1975404296875,42.65665609375,40.5614404296875C41.89781609375,39.6156404296875,42.11773609375,38.222040429687496,43.13105609375,37.5561404296875C44.14969609375,36.8727404296875,45.52124609375,37.0783404296875,46.29464609375,38.0305404296875C46.71724609375,38.6065404296875,47.40004609375,38.9331404296875,48.11384609375,38.900540429687496C49.293146093749996,38.900540429687496,50.249046093749996,37.9443404296875,50.249046093749996,36.7650404296875C50.249046093749996,35.5856404296875,49.29304609375,34.6296404296875,48.11384609375,34.6296404296875L40.86782609375,34.6296404296875C39.68820609375,34.6741404296875,38.69621609375,33.753140429687505,38.65329609375,32.5734404296875C38.73642609375,31.4126404296875,39.70403609375,30.514040429687498,40.86782609375,30.517040429687498L47.56014609375,30.517040429687498L47.56014609375,30.4381404296875Z" fill-rule="evenodd" fill="#FFFFFF" fill-opacity="1"/><path d="M26.45449453125,19.1501083984375L26.65439453125,19.1501083984375C28.14549453125,19.1500083984375,29.35439453125,17.9412683984375,29.35439453125,16.4501183984375C29.35439453125,14.9589383984375,28.14549453125,13.7501383984375,26.65439453125,13.7501683984375C25.72739453125,13.7261483984375,24.84139453125,14.1322183984375,24.25439453125,14.850138398437501C23.27659453125,16.0540583984375,21.54239453125,16.3141583984375,20.25439453125,15.4501183984375C18.97319453125,14.6081383984375,18.69479453125,12.8459883984375,19.65439453125,11.6501883984375C21.38199453125,9.5775283984375,23.95669453125,8.4004952984375,26.65439453125,8.4501168684375C31.35439453125,8.4501168684375,35.25439453125,12.050118398437501,35.25439453125,16.4501183984375C35.25439453125,20.8501083984375,31.35439453125,24.4501083984375,26.65439453125,24.4501083984375L8.15441453125,24.4501083984375C6.64459453125,24.5078083984375,5.36120653125,23.3573083984375,5.25439453125,21.8501083984375C5.30688473125,20.3170083984375,6.62463453125,19.135608398437498,8.15441453125,19.2502083984375L26.45449453125,19.2502083984375L26.45449453125,19.1501083984375ZM34.05439453125,39.550208398437505L34.75439453125,39.550208398437505C39.17269453125,39.550208398437505,42.75439453125,43.1319083984375,42.75439453125,47.5502083984375C42.75439453125,51.9685083984375,39.17269453125,55.5502083984375,34.75439453125,55.5502083984375C32.085194531249996,55.5987083984375,29.54159453125,54.4189083984375,27.85439453125,52.3501083984375C26.89489453125,51.1543083984375,27.17309453125,49.3922083984375,28.45439453125,48.5502083984375C29.74229453125,47.6862083984375,31.47659453125,47.9461083984375,32.45439453125,49.1501083984375C32.98879453125,49.8784083984375,33.85189453125,50.2914083984375,34.75439453125,50.2502083984375C36.24559453125,50.2501083984375,37.45439453125,49.0412083984375,37.45439453125,47.5500083984375C37.45439453125,46.0588083984375,36.24549453125,44.8499083984375,34.75439453125,44.8500083984375L8.05444453125,44.8500083984375C6.56292453125,44.9062083984375,5.30865483125,43.7418083984375,5.25439453125,42.2502083984375C5.35949753125,40.7824083984375,6.58294453125,39.6463083984375,8.05444453125,39.650108398437496L34.05429453125,39.650108398437496L34.05439453125,39.550208398437505Z" fill-rule="evenodd" fill="#FFFFFF" fill-opacity="1"/><g style="mix-blend-mode:passthrough"><rect x="1.254638671875" y="29.2850341796875" width="30.21435546875" height="5.199951171875" rx="2.5999755859375" fill="#FFFFFF" fill-opacity="1"/></g></g></g></svg>