<svg xmlns="http://www.w3.org/2000/svg" xmlns:xlink="http://www.w3.org/1999/xlink" fill="none" version="1.1" width="64" height="64" viewBox="0 0 64 64"><clipPath id="master_svg0_427_605"><rect x="0" y="0" width="64" height="64" rx="0"/></clipPath><g clip-path="url(#master_svg0_427_605)" style="mix-blend-mode:passthrough"><g><g style="mix-blend-mode:passthrough"><path d="M32.318,40.492C37.188,40.492,41.136,36.542,41.136,31.672C41.136,26.802,37.188,22.854,32.318,22.854C27.446,22.854,23.498,26.802,23.498,31.672C23.498,36.542,27.446,40.492,32.318,40.492C32.318,40.492,32.318,40.492,32.318,40.492ZM22.944000000000003,49.79C21.076,48.85,19.334,47.678,17.759999999999998,46.298C14.408000000000001,43.614,12.004,39.988,11.054,35.879999999999995C10.536,34.07,10.276,32.196,10.276,30.312C10.276,17.990000000000002,21.352,8,35.012,8C44.618,8,52.944,12.940000000000001,57.042,20.154C53.138,16.488,47.648,14.206,41.564,14.206C41.41,14.206,41.254,14.206,41.098,14.21C42.966,15.152000000000001,44.708,16.323999999999998,46.282,17.701999999999998C49.634,20.387999999999998,52.038,24.014,52.988,28.12C53.496,29.9,53.768,31.768,53.768,33.69C53.768,46.012,42.692,56,29.03,56C19.424,56,11.097999999999999,51.062,7,43.848C10.906,47.514,16.394,49.794,22.478,49.794C22.631999999999998,49.794,22.788,49.794,22.944000000000003,49.79C22.944000000000003,49.79,22.944000000000003,49.79,22.944000000000003,49.79Z" fill-rule="evenodd" fill="#FFFFFF" fill-opacity="1"/></g></g></g></svg>