<svg xmlns="http://www.w3.org/2000/svg" xmlns:xlink="http://www.w3.org/1999/xlink" fill="none" version="1.1" width="64" height="64" viewBox="0 0 64 64"><clipPath id="master_svg0_427_429"><rect x="0" y="0" width="64" height="64" rx="0"/></clipPath><g clip-path="url(#master_svg0_427_429)" style="mix-blend-mode:passthrough"><g><path d="M54.9001,46.3666C56.6374,46.3011,58.0634,47.7256,57.9978,49.4612L57.9978,49.9033C58.0634,51.6388,56.6374,53.0633,54.9001,52.9978L54.4575,52.9978C52.7203,53.0633,51.2942,51.6388,51.3598,49.9033L51.3598,49.4612C51.2942,47.7256,52.7203,46.3011,54.4575,46.3666L54.9001,46.3666ZM44.8324,46.3666C46.6043,46.3665,48.0408,47.8015,48.0408,49.5717L48.0408,49.7928C48.0408,51.5629,46.6044,52.9979,44.8324,52.9979L9.20837,52.9979C7.43645,52.998,6,51.563,6,49.7928L6,49.5717C5.9999831186,47.8015,7.43643,46.3665,9.20837,46.3666L44.8324,46.3666ZM54.7894,34.2093C56.5614,34.2093,57.9978,35.6443,57.9978,37.414500000000004L57.9978,37.6355C57.9978,39.4056,56.5614,40.840599999999995,54.7894,40.840599999999995L40.1858,40.840599999999995C38.4138,40.840599999999995,36.9774,39.4056,36.9774,37.6355L36.9774,37.414500000000004C36.9774,35.6443,38.4139,34.2093,40.1858,34.2093L54.7894,34.2093ZM30.45,34.2093C32.222,34.2093,33.6584,35.6443,33.6584,37.414500000000004L33.6584,37.6355C33.6584,39.4056,32.222,40.840599999999995,30.45,40.840599999999995L9.20837,40.840599999999995C7.43642,40.840599999999995,6,39.4056,6,37.6355L6,37.414500000000004C6.0000168814,35.6443,7.43645,34.2093,9.20837,34.2093L30.45,34.2093ZM54.7894,23.1573C56.5614,23.1572,57.9978,24.5922,57.9978,26.3624L57.9978,26.583399999999997C57.9978,28.3535,56.5614,29.7885,54.7894,29.7885L9.20837,29.7885C7.43643,29.7885,6,28.3535,6,26.583399999999997L6,26.3624C6.0000168814,24.5922,7.43645,23.1572,9.20837,23.1573L54.7894,23.1573ZM54.7894,11C56.5614,10.9999662718,57.9978,12.43497,57.9978,14.20509L57.9978,14.42615C57.9978,16.19627,56.5614,17.6312,54.7894,17.63124L36.8668,17.63124C35.0948,17.6312,33.6584,16.19624,33.6584,14.42615L33.6584,14.20509C33.6584,12.43497,35.0948,10.9999662718,36.8668,11L54.7894,11ZM13.854980000000001,11C15.62691,10.9999662718,17.0634,12.43497,17.063299999999998,14.20509L17.063299999999998,14.42615C17.0634,16.19624,15.62693,17.6312,13.854980000000001,17.63124L9.20837,17.63124C7.43643,17.6312,6,16.19627,6,14.42615L6,14.20509C6.0000168814,12.43493,7.43645,10.9999662718,9.20837,11L13.854980000000001,11ZM27.131,11C28.9029,10.9999662718,30.3394,12.43497,30.3394,14.20509L30.3394,14.42615C30.3394,16.19627,28.903,17.6312,27.131,17.63124L23.5907,17.63124C21.8188,17.6312,20.3824,16.19627,20.3824,14.42615L20.3824,14.20509C20.3824,12.43497,21.8188,10.9999662718,23.5907,11L27.131,11Z" fill-rule="evenodd" fill="#FFFFFF" fill-opacity="1"/></g></g></svg>