<svg xmlns="http://www.w3.org/2000/svg" xmlns:xlink="http://www.w3.org/1999/xlink" fill="none" version="1.1" width="64" height="64" viewBox="0 0 64 64"><clipPath id="master_svg0_439_934"><rect x="0" y="0" width="64" height="64" rx="0"/></clipPath><g clip-path="url(#master_svg0_439_934)" style="mix-blend-mode:passthrough"><g><path d="M49.2,23.7014L49.4,23.7014C50.8911,23.7014,52.0999,22.49259,52.0999,21.00141C52.0999,19.51023,50.8911,18.301389999999998,49.4,18.30142C48.5012,18.27753,47.6454,18.68674,47.0999,19.40143C46.1221,20.60538,44.3879,20.86554,43.0999,20.00144C41.8187,19.159399999999998,41.5405,17.39725,42.4999,16.20145C44.1872,14.13263,46.7308,12.9529743,49.4,13.00143623C54.0999,13.00143623,57.9999,16.60144,57.9999,21.001440000000002C57.9999,25.401400000000002,54.0999,29.0014,49.4,29.0014L8.799990000000001,29.0014C7.32849,29.0052,6.105164,27.8692,6,26.401400000000002C6.0541382,24.9098,7.30841,23.7451,8.799990000000001,23.8014L49.2,23.8014L49.2,23.7014ZM38.8,34.1015L39.4999,34.1015C43.9183,34.1015,47.4999,37.6832,47.4999,42.1015C47.4999,46.5198,43.9183,50.1015,39.4999,50.1015C36.8307,50.15,34.2872,48.9702,32.599900000000005,46.9014C31.6404,45.7056,31.9186,43.9435,33.1999,43.1015C34.487899999999996,42.2375,36.2221,42.4974,37.1999,43.7014C37.734300000000005,44.4297,38.5975,44.8427,39.4999,44.801500000000004C40.9911,44.8014,42.1999,43.5925,42.1999,42.101299999999995C42.1999,40.6101,40.991,39.4012,39.4999,39.4013L12.799990000000001,39.4013C11.30847,39.457499999999996,10.0542,38.293099999999995,9.99994,36.801500000000004C10.105039999999999,35.3337,11.32849,34.1976,12.799990000000001,34.2014L38.7999,34.2014L38.8,34.1015Z" fill-rule="evenodd" fill="#FFFFFF" fill-opacity="1"/></g></g></svg>