<svg xmlns="http://www.w3.org/2000/svg" xmlns:xlink="http://www.w3.org/1999/xlink" fill="none" version="1.1" width="64" height="64" viewBox="0 0 64 64"><clipPath id="master_svg0_427_626"><rect x="0" y="0" width="64" height="64" rx="0"/></clipPath><g clip-path="url(#master_svg0_427_626)"><g><path d="M8,28.6669481640625L8,23.3336181640625L56,23.3336181640625L56,28.6669481640625L8,28.6669481640625Z" fill="#FFFFFF" fill-opacity="1"/><path d="M8,17.9999559765625L8,12.6666259765625L56,12.6666259765625L56,17.9999559765625L8,17.9999559765625Z" fill="#FFFFFF" fill-opacity="1"/><path d="M8.000244140625,36.6666259765625C8.000244140625,34.4576459765625,9.791094140625,32.6666259765625,12.000244140625,32.6666259765625C14.209394140625001,32.6666259765625,16.000244140625,34.4576459765625,16.000244140625,36.6666259765625C16.000244140625,38.8756059765625,14.209394140625001,40.6666259765625,12.000244140625,40.6666259765625C9.791094140625,40.6666259765625,8.000244140625,38.8756059765625,8.000244140625,36.6666259765625Z" fill="#E9BB1D" fill-opacity="1"/><path d="M21.333251953125,36.6666259765625C21.333251953125,34.4576459765625,23.124101953125,32.6666259765625,25.333251953125,32.6666259765625C27.542401953125,32.6666259765625,29.333251953125,34.4576459765625,29.333251953125,36.6666259765625C29.333251953125,38.8756059765625,27.542401953125,40.6666259765625,25.333251953125,40.6666259765625C23.124101953125,40.6666259765625,21.333251953125,38.8756059765625,21.333251953125,36.6666259765625Z" fill="#E9BB1D" fill-opacity="1"/><path d="M34.666748046875,36.6666259765625C34.666748046875,34.4576459765625,36.457598046875,32.6666259765625,38.666748046875,32.6666259765625C40.875898046875,32.6666259765625,42.666748046875,34.4576459765625,42.666748046875,36.6666259765625C42.666748046875,38.8756059765625,40.875898046875,40.6666259765625,38.666748046875,40.6666259765625C36.457598046875,40.6666259765625,34.666748046875,38.8756059765625,34.666748046875,36.6666259765625Z" fill="#E9BB1D" fill-opacity="1"/><path d="M48,36.6666259765625C48,34.4576459765625,49.79085,32.6666259765625,52,32.6666259765625C54.20915,32.6666259765625,56,34.4576459765625,56,36.6666259765625C56,38.8756059765625,54.20915,40.6666259765625,52,40.6666259765625C49.79085,40.6666259765625,48,38.8756059765625,48,36.6666259765625Z" fill="#E9BB1D" fill-opacity="1"/><path d="M28,47.3333740234375C28,45.1243940234375,29.79085,43.3333740234375,32,43.3333740234375C34.20915,43.3333740234375,36,45.1243940234375,36,47.3333740234375C36,49.5423540234375,34.20915,51.3333740234375,32,51.3333740234375C29.79085,51.3333740234375,28,49.5423540234375,28,47.3333740234375Z" fill="#E9BB1D" fill-opacity="1"/><path d="M41.333251953125,47.3333740234375C41.333251953125,45.1243940234375,43.124101953125,43.3333740234375,45.333251953125,43.3333740234375C47.542401953125,43.3333740234375,49.333251953125,45.1243940234375,49.333251953125,47.3333740234375C49.333251953125,49.5423540234375,47.542401953125,51.3333740234375,45.333251953125,51.3333740234375C43.124101953125,51.3333740234375,41.333251953125,49.5423540234375,41.333251953125,47.3333740234375Z" fill="#E9BB1D" fill-opacity="1"/><path d="M14.666748046875,47.3333740234375C14.666748046875,45.1243940234375,16.457598046875,43.3333740234375,18.666748046875,43.3333740234375C20.875898046875,43.3333740234375,22.666748046875,45.1243940234375,22.666748046875,47.3333740234375C22.666748046875,49.5423540234375,20.875898046875,51.3333740234375,18.666748046875,51.3333740234375C16.457598046875,51.3333740234375,14.666748046875,49.5423540234375,14.666748046875,47.3333740234375Z" fill="#E9BB1D" fill-opacity="1"/></g></g></svg>