<svg xmlns="http://www.w3.org/2000/svg" xmlns:xlink="http://www.w3.org/1999/xlink" fill="none" version="1.1" width="64" height="64" viewBox="0 0 64 64"><clipPath id="master_svg0_427_481"><rect x="0" y="0" width="64" height="64" rx="0"/></clipPath><g clip-path="url(#master_svg0_427_481)" style="mix-blend-mode:passthrough"><g><path d="M27.61700390625,7.9000244140625C33.20310390625,7.9644775140625,38.17240390625,11.4628944140625,40.11700390625,16.7000144140625C38.07710390625,16.0609744140625,35.95450390625,15.7240644140625,33.81700390625,15.700014414062501C27.14100390625,15.6944544140625,20.90720390625,19.036724414062498,17.21700390625,24.6000244140625L16.617003906249998,24.6000244140625C11.53460390625,24.5956244140625,6.70739390625,26.8264244140625,3.41699390625,30.7000244140625C2.76879890625,29.3231244140625,2.42755130625,27.8218244140625,2.41699218725,26.3000244140625C2.36151120625,20.2248244140625,7.24170390625,15.2550344140625,13.31700390625,15.200014414062501C14.09370390625,15.1944544140625,14.86760390625,15.2953844140625,15.61700390625,15.5000044140625C17.853203906250002,10.8970144140625,22.49980390625,7.9541778140625,27.61700390625,7.9000244140625Z" fill-rule="evenodd" fill="#FFFFFF" fill-opacity="1"/><path d="M34.6169921875,19.4000549316625C42.7169921875,19.4000549316625,49.4170921875,26.2000444140625,50.3169921875,34.8000244140625L51.9168921875,34.8000244140625C57.4004921875,35.3320244140625,61.5836921875,39.940824414062504,61.5836921875,45.4500244140625C61.5836921875,50.9593244140625,57.4004921875,55.5680244140625,51.9168921875,56.1000244140625L17.7169921875,56.1000244140625C10.617002187499999,56.1000244140625,4.9169921875,49.9000244140625,4.9169921875,42.4000244140625C4.9169921875,34.9000244140625,10.617002187499999,28.7000144140625,17.7169921875,28.7000144140625L20.4168921875,28.7000144140625C22.3048921875,29.0769344140625,24.0623921875,29.9385244140625,25.5168921875,31.2000244140625C26.4005921875,31.8628244140625,27.6541921875,31.6837244140625,28.3169921875,30.8000244140625C29.0022921875,29.9425244140625,28.8683921875,28.6929044140625,28.0168921875,28.000034414062497C26.4476921875,26.7095644140625,24.6496921875,25.7258044140625,22.7168921875,25.1000344140625C25.6090921875,21.4876444140625,29.9893921875,19.3895264140625,34.6169921875,19.4000549316625Z" fill-rule="evenodd" fill="#FFFFFF" fill-opacity="1"/></g></g></svg>