<svg xmlns="http://www.w3.org/2000/svg" xmlns:xlink="http://www.w3.org/1999/xlink" fill="none" version="1.1" width="64" height="64" viewBox="0 0 64 64"><clipPath id="master_svg0_427_519"><rect x="0" y="0" width="64" height="64" rx="0"/></clipPath><g clip-path="url(#master_svg0_427_519)" style="mix-blend-mode:passthrough"><g><path d="M17.26025390625,47.5C18.36486390625,47.5,19.26025390625,48.395447,19.26025390625,49.5L19.26025390625,56.5C19.26025390625,57.6046,18.36486390625,58.5,17.26025390625,58.5C16.15563990625,58.5,15.26025390625,57.6046,15.26025390625,56.5L15.26025390625,49.5C15.26025390625,48.395447,16.15563990625,47.5,17.26025390625,47.5ZM45.26025390625,47.5C46.364853906250005,47.5,47.26025390625,48.395447,47.26025390625,49.5L47.26025390625,56.5C47.26025390625,57.6046,46.364853906250005,58.5,45.26025390625,58.5C44.155653906249995,58.5,43.26025390625,57.6046,43.26025390625,56.5L43.26025390625,49.5C43.26025390625,48.395447,44.155653906249995,47.5,45.26025390625,47.5Z" fill-rule="evenodd" fill="#0AAEFF" fill-opacity="1"/><path d="M33.26025390625,5.5C41.46025390625,5.5,48.26025390625,12.100010000000001,49.16025390625,20.6L50.76025390625,20.6C56.55125390625,20.6113,61.23975390625,25.309,61.23975390625,31.1C61.23975390625,36.891,56.55125390625,41.5887,50.76025390625,41.6L16.26025390625,41.6C8.80444390625,41.6,2.76025390625,35.555800000000005,2.76025390625,28.1C2.76025390625,20.6441,8.80444390625,14.59998,16.26025390625,14.59998C17.16885390625,14.5957,18.07485390625,14.69635,18.96025390625,14.89996L19.06015390625,14.89996C20.88895390625,15.30545,22.59985390625,16.1267,24.06015390625,17.3C24.93225390625,17.9333,26.14225390625,17.8037,26.86025390625,17C27.52295390625,16.116300000000003,27.34375390625,14.86276,26.46025390625,14.19998C24.90665390625,12.9895,23.14415390625,12.07434,21.26025390625,11.499970000000001C24.12325390625,7.75931,28.54985390625,5.5460205,33.26025390625,5.5Z" fill-rule="evenodd" fill="#FFFFFF" fill-opacity="1"/><path d="M29.4603228125,50.5999755859375L29.4603228125,48.8999655859375C29.4603228125,48.1820065859375,30.0423628125,47.5999755859375,30.7602528125,47.5999755859375C31.478272812500002,47.5999755859375,32.0603028125,48.1820065859375,32.0603028125,48.8999655859375L32.0603028125,50.5999755859375L33.3603528125,49.6999555859375C33.9920628125,49.3462555859375,34.7906528125,49.6281155859375,35.0603028125,50.2999255859375C35.4490928125,50.9070455859375,35.2696528125,51.7145955859375,34.6602828125,52.0999155859375L33.2602528125,52.9999355859375L34.6602828125,53.8999655859375C35.2696528125,54.2852755859375,35.4492228125,55.0928955859375,35.0603028125,55.6999555859375C34.7906528125,56.371765585937496,33.9920628125,56.6536255859375,33.3603528125,56.2999255859375L32.0603028125,55.3999055859375L32.0603028125,57.0999155859375C32.0603028125,57.8178755859375,31.478272812500002,58.3998755859375,30.7602528125,58.3998755859375C30.0423628125,58.3998755859375,29.4603228125,57.8178755859375,29.4603228125,57.0999155859375L29.4603228125,55.3999055859375L28.1602828125,56.2999255859375C27.5286828125,56.6536255859375,26.7299808125,56.371765585937496,26.4603268125,55.6999555859375C26.0714108125,55.0928955859375,26.2509765625,54.2852755859375,26.8603518125,53.8999655859375L28.2603728125,52.9999355859375L26.8603518125,52.0999155859375C26.2509765625,51.7145955859375,26.0715328125,50.9070455859375,26.4603268125,50.2999255859375C26.7299808125,49.6281155859375,27.5286828125,49.3462555859375,28.1602828125,49.6999555859375L29.4603228125,50.5999755859375Z" fill-rule="evenodd" fill="#FFFFFF" fill-opacity="1"/></g></g></svg>