<svg xmlns="http://www.w3.org/2000/svg" xmlns:xlink="http://www.w3.org/1999/xlink" fill="none" version="1.1" width="64" height="64" viewBox="0 0 64 64"><clipPath id="master_svg0_427_455"><rect x="0" y="0" width="64" height="64" rx="0"/></clipPath><g clip-path="url(#master_svg0_427_455)" style="mix-blend-mode:passthrough"><g><path d="M31.163452421875,57.004947890625L31.163452421875,55.504947890625C31.169062421875,54.790923890625,31.749452421875,54.215087890625,32.463442421875,54.215087890625C33.177492421875,54.215087890625,33.757872421875,54.790954890625,33.763432421875,55.504947890625L33.763432421875,57.004947890625L35.063412421875,56.204957890625C35.673522421875,55.899747890625,36.415712421875,56.118037890625,36.763432421875,56.704957890624996C37.136352421875,57.218597890625,36.942562421874996,57.945217890625,36.363402421875,58.204957890624996L34.963382421875,58.904967890625L36.363402421875,59.604977890625C36.950802421875,59.909427890625,37.138432421875,60.659877890625,36.763432421875,61.204987890625C36.359562421875,61.718747890624996,35.653992421875,61.884767890625,35.063412421875,61.604977890625L33.763432421875,60.804987890625L33.763432421875,62.304987890625C33.757812421875,63.018977890625,33.177432421875,63.594817890625,32.463442421875,63.594817890625C31.749392421875,63.594817890625,31.169002421875,63.018977890625,31.163452421875,62.304987890625L31.163452421875,60.804987890625L29.863462421875,61.604977890625C29.272892421875,61.884737890625,28.567260421875,61.718747890624996,28.163452421875,61.204987890625C27.788452421875,60.659877890625,27.976074221875,59.909457890625,28.563476421875,59.604977890625L29.963502421875,58.904967890625L28.563476421875,58.204957890624996C27.984313921875,57.945217890625,27.790527421875,57.218597890625,28.163452421875,56.704957890624996C28.511169421875,56.118037890625,29.253352421875,55.899747890625,29.863462421875,56.204957890625L31.163452421875,57.004947890625Z" fill-rule="evenodd" fill="#FFFFFF" fill-opacity="1"/><path d="M12.86339890625,23.805029296875C11.148188906249999,15.987829296875,17.06057890625,8.573139296875,25.06337890625,8.505019296875C29.64827890625,8.482039296875,33.85887890625,11.031629296875,35.96347890625,15.105029296875C35.01027890625,14.901329296875,34.037978906250004,14.800829296875,33.06337890625,14.805029296875C27.12967890625,14.822529296875,21.61887890625,17.879829296875,18.46347890625,22.905029296875L17.96347890625,22.905029296875C16.22297890625,22.894329296875,14.49507890625,23.199329296875,12.86339890625,23.805029296875ZM20.56337890625,3.105029296875C20.56337890625,1.613859296875,21.77217890625,0.405029296875,23.26337890625,0.405029296875C24.75447890625,0.405029296875,25.96337890625,1.613859296875,25.96337890625,3.105029296875C25.96337890625,4.596189296875,24.75457890625,5.805019296875,23.26337890625,5.805019296875C21.77227890625,5.805039296875,20.56337890625,4.596189296875,20.56337890625,3.105029296875ZM9.36339890625,10.905029296875C8.37231890625,9.832229296875,8.37231890625,8.177839296875,9.36339890625,7.105029296875C10.41509890625,6.043169296875,12.129328906249999,6.037669296875,13.18780890625,7.092769296875C14.24627890625,8.147889296875,14.24627890625,9.862149296875,13.18780890625,10.917229296875C12.12939890625,11.972329296875,10.41515890625,11.966929296875,9.36339890625,10.905029296875ZM39.76337890625,10.005039296875C38.73567890625,11.105329296875,36.99117890625,11.105329296875,35.96347890625,10.005039296875C34.97237890625,8.932239296875,34.97237890625,7.277829296875,35.96347890625,6.205029296875C36.97577890625,4.971569296875,38.83127890625,4.880459296875,39.95957890625,6.008809296875C41.08797890625,7.137149296875,40.99687890625,8.992659296875,39.76337890625,10.005039296875ZM7.263428906250001,23.805029296875C5.76049890625,23.860729296875,4.50177000625,22.677629296875,4.46423339825,21.174129296875C4.42675780625,19.670629296875,5.62493890625,18.426329296875,7.12878890625,18.407029296875C8.63262890625,18.387829296875,9.862368906250001,19.601029296875,9.86339890625,21.105029296875C9.864438906250001,22.558029296875,8.71538890625,23.751329296875,7.263428906250001,23.805029296875Z" fill-rule="evenodd" fill="#FFB443" fill-opacity="1"/><path d="M33.363296875,18.4049682617625C40.763296875,18.4049682617625,46.863296875,24.4049672265625,47.663296875,32.0050072265625L49.063296875,32.0050072265625C54.665296875,31.4279072265625,59.536696875,35.8233072265625,59.536696875,41.4550072265625C59.536696875,47.086707226562496,54.665296875,51.4820072265625,49.063296875,50.9050072265625L18.063296875,50.9050072265625C11.778866875,50.3342072265625,6.966796875,45.0652072265625,6.966796875,38.7549072265625C6.966796875,32.4447072265625,11.778866875,27.1757172265625,18.063296875,26.6049772265625L20.363296875,26.6049772265625C22.116396875,26.9994172265625,23.757396875,27.7857372265625,25.163296875,28.9050072265625C25.937996875,29.3469072265625,26.919496875,29.1549072265625,27.470596875,28.4536072265625C28.021696875,27.7522572265625,27.975996875,26.7531472265625,27.363296875,26.1049772265625C25.961896875,24.9133272265625,24.326996875,24.027707226562498,22.563296875,23.5049772265625C25.212196875,20.2661172265625,29.179196875,18.3928222265625,33.363296875,18.4049682617625Z" fill-rule="evenodd" fill="#FFFFFF" fill-opacity="1"/></g></g></svg>