<svg xmlns="http://www.w3.org/2000/svg" xmlns:xlink="http://www.w3.org/1999/xlink" fill="none" version="1.1" width="64" height="64" viewBox="0 0 64 64"><clipPath id="master_svg0_427_531"><rect x="0" y="0" width="64" height="64" rx="0"/></clipPath><g clip-path="url(#master_svg0_427_531)" style="mix-blend-mode:passthrough"><g><path d="M30.7002,47.2499755859375C31.4192,47.3031755859375,31.9575,47.9312755859375,31.9001,48.6499755859375L31.9001,50.3499755859375L33.200199999999995,49.4499755859375C33.7809,49.1548755859375,34.491,49.3767755859375,34.800200000000004,49.9499755859375C35.1991,50.5878755859375,35.0223,51.4269755859375,34.400099999999995,51.8499755859375L33.1001,52.7499755859375L34.400099999999995,53.5499755859375C35.0223,53.9729755859375,35.1991,54.8120755859375,34.800200000000004,55.4499755859375C34.535,56.0742755859375,33.7736,56.3122755859375,33.200199999999995,55.9499755859375L31.9001,55.0499755859375L31.9001,56.7499755859375C31.9575,57.4686755859375,31.4192,58.0967755859375,30.7002,58.1499755859375C29.9812,58.0967755859375,29.4429,57.4686755859375,29.5002,56.7499755859375L29.5002,55.0499755859375L28.2002,55.9499755859375C27.7002,56.3499755859375,27.0002,56.0499755859375,26.6002,55.4499755859375C26.2712,54.7803755859375,26.4843,53.9707755859375,27.1002,53.5499755859375L28.4003,52.7499755859375L27.1002,51.8499755859375C26.4843,51.4290755859375,26.2712,50.6195755859375,26.6002,49.9499755859375C26.9095,49.3767755859375,27.6196,49.1548755859375,28.2002,49.4499755859375L29.5002,50.3499755859375L29.5002,48.6499755859375C29.4429,47.9312755859375,29.9812,47.3031755859375,30.7002,47.2499755859375ZM17.900100000000002,15.3499755859375L18.600099999999998,15.3499755859375C20.4722,15.8269355859375,22.2145,16.7151755859375,23.7001,17.9499755859375C24.5837,18.640375585937498,25.8597,18.483675585937497,26.55,17.5999755859375C27.2405,16.7163755859375,27.0837,15.4403355859375,26.2001,14.7499655859375C24.6604,13.3933755859375,22.8556,12.3717655859375,20.9,11.749965585937499C23.7521,8.0625455859375,28.1385,5.8877868859375,32.8,5.8499755859375C41,5.8499755859375,47.7001,12.649965585937501,48.6001,21.3499755859375L50.2001,21.3499755859375C56.1647,21.3499755859375,61,26.1852755859375,61,32.1499755859375C61,38.1146755859375,56.1647,42.9499755859375,50.2001,42.9499755859375L15.9,42.9499755859375C8.800049999999999,42.9499755859375,3,36.7499755859375,3,29.0499755859375C3,21.3499755859375,8.800049999999999,15.1499955859375,15.9,15.1499955859375L17.9,15.1499955859375L17.900100000000002,15.3499755859375Z" fill-rule="evenodd" fill="#FFFFFF" fill-opacity="1"/></g></g></svg>