<svg xmlns="http://www.w3.org/2000/svg" xmlns:xlink="http://www.w3.org/1999/xlink" fill="none" version="1.1" width="64" height="64" viewBox="0 0 64 64"><clipPath id="master_svg0_427_431"><rect x="0" y="0" width="64" height="64" rx="0"/></clipPath><g clip-path="url(#master_svg0_427_431)" style="mix-blend-mode:passthrough"><g><path d="M32.94990234375,6.7958984373125C41.14990234375,6.7958984373125,47.84990234375,13.3958739453125,48.74990234375,21.8958439453125L50.34990234375,21.8958439453125C56.14890234375,21.8958439453125,60.84990234375,26.5968439453125,60.84990234375,32.3958439453125C60.84990234375,38.1948439453125,56.14890234375,42.8958439453125,50.34990234375,42.8958439453125L16.04990234375,42.8958439453125C8.949892343750001,42.8958439453125,3.14990234375,36.8958439453125,3.14990234375,29.3958439453125C3.14990234375,21.8958439453125,8.94990234375,15.8958739453125,16.04990234375,15.8958739453125L18.74990234375,15.8958739453125C20.63080234375,16.2937039453125,22.38330234375,17.1527439453125,23.84990234375,18.3958439453125C24.73360234375,19.0585439453125,25.98710234375,18.8795439453125,26.64990234375,17.9958439453125C27.33520234375,17.1383439453125,27.20140234375,15.8886739453125,26.34990234375,15.1958639453125C24.77670234375,13.934933945312501,22.97810234375,12.9847439453125,21.04990234375,12.3958739453125C23.95260234375,8.8090239453125,28.33600234375,6.7462768453125,32.94990234375,6.7958984373125Z" fill-rule="evenodd" fill="#FFFFFF" fill-opacity="1"/><path d="M33.640531171875,50.9959740625L35.940541171875,51.6959840625C36.095531171875,51.7193040625,36.222641171875,51.8309340625,36.265721171875,51.9816240625C36.308761171875,52.1323840625,36.259831171875,52.2943740625,36.140531171875,52.3959940625C36.134231171875,52.4730840625,36.098401171875,52.5448040625,36.040531171875,52.5960040625L29.940521171874998,57.096014062500004C29.687871171875,57.2735140625,29.341731171875,57.2303140625,29.140521171875,56.9960140625C29.040511171875,56.8960140625,28.940521171874998,56.6960140625,29.040511171875,56.596014062500004L29.840511171875,50.7960240625L27.540512171875,50.0960040625C27.385528171875,50.072754062499996,27.258407571875,49.9610640625,27.215347271875,49.8103640625C27.172302271875,49.6596640625,27.221221971875,49.4976840625,27.340515171875,49.3959940625L27.340515171875,49.1959840625L33.440521171875,44.6959840625C33.693191171875,44.5184936625,34.039291171875,44.5617675625,34.240521171875,44.7959590625C34.340531171875,44.8959350625,34.440521171875,45.0959470625,34.340531171875,45.1959840625L33.640531171875,50.9959740625Z" fill-rule="evenodd" fill="#0AAEFF" fill-opacity="1"/><ellipse cx="15.699951171875" cy="52.69580078125" rx="4.5" ry="4.5" fill="#FFFFFF" fill-opacity="1"/><ellipse cx="48.099853515625" cy="52.69580078125" rx="4.5" ry="4.5" fill="#FFFFFF" fill-opacity="1"/></g></g></svg>