<svg xmlns="http://www.w3.org/2000/svg" xmlns:xlink="http://www.w3.org/1999/xlink" fill="none" version="1.1" width="64" height="64" viewBox="0 0 64 64"><clipPath id="master_svg0_427_439"><rect x="0" y="0" width="64" height="64" rx="0"/></clipPath><g clip-path="url(#master_svg0_427_439)" style="mix-blend-mode:passthrough"><g><path d="M32.66025390625,44.286987640625C32.66025390625,44.386962640625,32.76025390625,44.486999640625,32.66025390625,44.687011640625L31.96025390625,51.087031640625L33.96025390625,51.887021640625C34.28935390625,52.009461640625,34.39305390625,52.424071640625,34.16025390625,52.687011640625L34.16025390625,52.887021640625L28.76025390625,57.886981640625C28.497353906249998,58.119781640625,28.082653906250002,58.016081640625,27.96025390625,57.686981640625C27.96025390625,57.587081640625,27.86025390625,57.486981640625004,27.96025390625,57.286981640625L28.66025390625,50.886961640625L26.66025390625,50.086971640625C26.331253906249998,49.964481640625,26.22755390625,49.549931640625,26.46025390625,49.286991640625L26.46025390625,49.086971640625L31.86025390625,44.086974640625C32.12325390625,43.854247640625,32.53785390625,43.957885740625,32.66025390625,44.286987640625ZM16.26025390625,45.987001640625C17.36480390625,45.987001640625,18.26025390625,46.882441640625004,18.26025390625,47.987001640625L18.26025390625,53.986981640625004C18.26025390625,55.091581640625,17.36480390625,55.986981640625004,16.26025390625,55.986981640625004C15.15570090625,55.986981640625004,14.26025390625,55.091581640625,14.26025390625,53.986981640625004L14.26025390625,47.987001640625C14.26025390625,46.882441640625004,15.15570090625,45.987001640625,16.26025390625,45.987001640625ZM44.26025390625,45.987001640625C45.364853906250005,45.987001640625,46.26025390625,46.882441640625004,46.26025390625,47.987001640625L46.26025390625,53.986981640625004C46.26025390625,55.091581640625,45.364853906250005,55.986981640625004,44.26025390625,55.986981640625004C43.155653906249995,55.986981640625004,42.26025390625,55.091581640625,42.26025390625,53.986981640625004L42.26025390625,47.987001640625C42.26025390625,46.882441640625004,43.155653906249995,45.987001640625,44.26025390625,45.987001640625Z" fill-rule="evenodd" fill="#0AAEFF" fill-opacity="1"/><path d="M33.26025390625,5.987060546875C41.46025390625,5.987060546875,48.26025390625,12.587070546875001,49.16025390625,21.087060546875L50.76025390625,21.087060546875C56.55125390625,21.098360546875,61.23975390625,25.796060546875,61.23975390625,31.587060546875C61.23975390625,37.378060546875,56.55125390625,42.075760546875,50.76025390625,42.087060546875L16.26025390625,42.087060546875C8.80438390625,42.087060546875,2.76025390625,36.042860546875005,2.76025390625,28.587060546875C2.76025390625,21.131160546875,8.80438390625,15.087040546875,16.26025390625,15.087040546875C17.16885390625,15.082760546875,18.07485390625,15.183410546875,18.96025390625,15.387020546875L19.06025390625,15.387020546875C20.88905390625,15.792510546875,22.59995390625,16.613760546875,24.06025390625,17.787060546875C24.93235390625,18.420360546875,26.14215390625,18.290660546875,26.86025390625,17.487060546875C27.52295390625,16.603360546875003,27.34385390625,15.349790546875,26.46025390625,14.687040546875C24.90665390625,13.476560546875,23.14415390625,12.561400546875,21.26015390625,11.987030546875001C24.12325390625,8.246340546875,28.54985390625,6.033081046875,33.26025390625,5.987060546875Z" fill-rule="evenodd" fill="#FFFFFF" fill-opacity="1"/></g></g></svg>