<svg xmlns="http://www.w3.org/2000/svg" xmlns:xlink="http://www.w3.org/1999/xlink" fill="none" version="1.1" width="64" height="64" viewBox="0 0 64 64"><clipPath id="master_svg0_427_543"><rect x="0" y="0" width="64" height="64" rx="0"/></clipPath><g clip-path="url(#master_svg0_427_543)" style="mix-blend-mode:passthrough"><g><path d="M19.358800000000002,18.45013L19.9863,18.45013C21.6647,18.874380000000002,23.2268,19.66444,24.5587,20.7628C25.3509,21.3769,26.4949,21.2375,27.1138,20.4515C27.7328,19.66552,27.5923,18.53051,26.8001,17.91644C25.4197,16.70976,23.8016,15.80105,22.0483,15.247969999999999C24.6053,11.96805,28.538,10.0336327,32.7173,10C40.069,10,46.0759,16.04851,46.8828,23.787100000000002L48.3173,23.787100000000002C53.6649,23.787100000000002,58,28.088,58,33.3935C58,38.699,53.665,39.5,48.3174,39.5L17.5654,39.5C11.19993,39.5,6,37.4852,6,30.6361C6,23.787100000000002,11.200040000000001,18.27225,17.5655,18.27225L19.3586,18.27225L19.358800000000002,18.45013Z" fill-rule="evenodd" fill="#FFFFFF" fill-opacity="1"/><g style="mix-blend-mode:passthrough"><rect x="6" y="47" width="11" height="6" rx="3" fill="#FFFFFF" fill-opacity="1"/></g><g style="mix-blend-mode:passthrough"><rect x="21" y="47" width="37" height="6" rx="3" fill="#FFFFFF" fill-opacity="1"/></g></g></g></svg>