<svg xmlns="http://www.w3.org/2000/svg" xmlns:xlink="http://www.w3.org/1999/xlink" fill="none" version="1.1" width="64" height="64" viewBox="0 0 64 64"><clipPath id="master_svg0_427_607"><rect x="0" y="0" width="64" height="64" rx="0"/></clipPath><g clip-path="url(#master_svg0_427_607)"><g><path d="M13.5008534375,49.5009455078125C15.1577134375,49.5009455078125,16.500853437499998,50.8441455078125,16.500853437499998,52.5009455078125C16.500853437499998,54.1578455078125,15.1577134375,55.5009455078125,13.5008534375,55.5009455078125C11.8439934375,55.5009455078125,10.5008544875,54.1578455078125,10.5008544875,52.5009455078125C10.4418335375,50.8202455078125,11.8201634375,49.4419455078125,13.5008534375,49.5009455078125ZM32.5008234375,49.5009455078125C34.157723437499996,49.5009455078125,35.5008234375,50.8441455078125,35.5008234375,52.5009455078125C35.5008234375,54.1578455078125,34.157723437499996,55.5009455078125,32.5008234375,55.5009455078125C30.8440234375,55.5009455078125,29.5008234375,54.1578455078125,29.5008234375,52.5009455078125C29.4418234375,50.8202455078125,30.8201234375,49.4419455078125,32.5008234375,49.5009455078125ZM52.5008234375,49.5009455078125C54.1577234375,49.5009455078125,55.5008234375,50.8441455078125,55.5008234375,52.5009455078125C55.5008234375,54.1578455078125,54.1577234375,55.5009455078125,52.5008234375,55.5009455078125C50.8440234375,55.5009455078125,49.5008234375,54.1578455078125,49.5008234375,52.5009455078125C49.4418234375,50.8202455078125,50.8201234375,49.4419455078125,52.5008234375,49.5009455078125ZM13.5008534375,8.5009765578125C15.1577134375,8.5009765578125,16.500853437499998,9.8441155078125,16.500853437499998,11.5009755078125C16.500853437499998,13.1578355078125,15.1577134375,14.5009755078125,13.5008534375,14.5009755078125C11.8439934375,14.5009755078125,10.5008544875,13.1578355078125,10.5008544875,11.5009755078125C10.4418640375,9.8202855078125,11.8201934375,8.4419556078125,13.5008534375,8.5009765578125ZM32.5008234375,8.5009765578125C34.157723437499996,8.5009765578125,35.5008234375,9.8441155078125,35.5008234375,11.5009755078125C35.5008234375,13.1578355078125,34.157723437499996,14.5009755078125,32.5008234375,14.5009755078125C30.8440234375,14.5009755078125,29.5008234375,13.1578355078125,29.5008234375,11.5009755078125C29.4418234375,9.8202855078125,30.8202234375,8.4419556078125,32.5008234375,8.5009765578125ZM52.5008234375,8.5009765578125C54.1577234375,8.5009765578125,55.5008234375,9.8441155078125,55.5008234375,11.5009755078125C55.5008234375,13.1578355078125,54.1577234375,14.5009755078125,52.5008234375,14.5009755078125C50.8440234375,14.5009755078125,49.5008234375,13.1578355078125,49.5008234375,11.5009755078125C49.4418234375,9.8202855078125,50.8202234375,8.4419556078125,52.5008234375,8.5009765578125Z" fill-rule="evenodd" fill="#E9BB1D" fill-opacity="1"/><path d="M43.5007955078125,19.5009460496875C49.9876955078125,19.2580264296875,55.5810955078125,24.0210554296875,56.3747955078125,30.4638654296875C57.1684955078125,36.9066654296875,52.8983955078125,42.884765429687505,46.5464955078125,44.2235654296875C40.1944955078125,45.5622654296875,33.8748955078125,41.815965429687495,32.0007955078125,35.6009654296875C29.5327955078125,43.8070654296875,19.7269955078125,47.1530654296875,12.7575055078125,42.167265429687504C5.7880255078125,37.1813654296875,5.7880255078125,26.8204054296875,12.7575055078125,21.8345354296875C19.7269955078125,16.8486654296875,29.5327955078125,20.1947024296875,32.0007955078125,28.400905429687498C33.4540955078125,23.2242154296875,38.1250955078125,19.6092834296875,43.5007955078125,19.5009460496875ZM20.500795507812498,25.5009454296875C16.858975507812502,25.2200354296875,13.7007755078125,27.994175429687502,13.5097655078125,31.6418654296875C13.3187555078125,35.2895654296875,16.1700155078125,38.3783654296875,19.8212955078125,38.4792654296875C23.4724955078125,38.5802654296875,26.4899955078125,35.653565429687504,26.5007955078125,32.0009654296875C26.6139955078125,28.5583754296875,23.9413955078125,25.6630854296875,20.500795507812498,25.5009454296875ZM43.5007955078125,25.5009454296875C39.8589955078125,25.2200354296875,36.7006955078125,27.9942054296875,36.5097955078125,31.6418654296875C36.318795507812496,35.2895654296875,39.1699955078125,38.3783654296875,42.8211955078125,38.4792654296875C46.4724955078125,38.5802654296875,49.4899955078125,35.653565429687504,49.5007955078125,32.0009654296875C49.6138955078125,28.5583754296875,46.9413955078125,25.6630854296875,43.5007955078125,25.5009454296875Z" fill-rule="evenodd" fill="#FFFFFF" fill-opacity="1"/></g></g></svg>