<svg xmlns="http://www.w3.org/2000/svg" xmlns:xlink="http://www.w3.org/1999/xlink" fill="none" version="1.1" width="64" height="64" viewBox="0 0 64 64"><clipPath id="master_svg0_427_474"><rect x="0" y="0" width="64" height="64" rx="0"/></clipPath><g clip-path="url(#master_svg0_427_474)" style="mix-blend-mode:passthrough"><g><path d="M31.2018,48.0018C32.8587,48.0019,34.2018,49.345,34.2018,51.0018C34.2018,52.6587,32.8587,54.0019,31.2018,54.0018L25.1019,54.0018C23.4212,54.0608,22.0429,52.6825,22.1019,51.0018C22.0428,49.3212,23.4211,47.9428,25.1019,48.0018L31.2018,48.0018ZM44.8018,39.0018C46.4433,39.0008,47.7584,40.3613,47.7018,42.0018C47.7584,43.6424,46.4434,45.0028,44.8018,45.0018L27.4011,45.0018C25.7596,45.0028,24.4443,43.6423,24.501,42.0018C24.4443,40.3613,25.7596,39.0009,27.4011,39.0018L44.8018,39.0018ZM45.001,28.5018C46.6816,28.4427,48.06,29.8211,48.001,31.5018C48.06,33.1826,46.6816,34.560900000000004,45.001,34.5018L14.5018,34.5018C12.84497,34.5018,11.50183,33.158699999999996,11.50183,31.5018C11.50183,29.845,12.84497,28.5018,14.5018,28.5018L45.001,28.5018ZM56.8018,19.5018C58.4587,19.5018,59.8018,20.845,59.8018,22.5018C59.8018,24.1587,58.4587,25.5018,56.8018,25.5018L16.000999999999998,25.5018C14.3441,25.5018,13.00098,24.1587,13.00098,22.5018C13.00098,20.845,14.3441,19.5018,16.000999999999998,19.5018L56.8018,19.5018ZM56.8018,9.00183105C58.4433,9.000854492,59.7585,10.36127,59.7019,12.00183C59.7585,13.642330000000001,58.4433,15.00281,56.8018,15.00183L7.00183,15.00183C5.32111,15.06085,3.9428101,13.682500000000001,4.00183105,12.00183C3.9428101,10.321110000000001,5.32111,8.9428101,7.00183,9.00183105L56.8018,9.00183105Z" fill-rule="evenodd" fill="#FFFFFF" fill-opacity="1"/></g></g></svg>